<svg width="915" height="918" viewBox="0 0 915 918" fill="none" xmlns="http://www.w3.org/2000/svg">
<path d="M463.982 300.24H466.642V311H463.982V300.24ZM465.922 304.56H469.102V306.74H465.922V304.56ZM458.682 301.28H461.482C461.482 302.92 461.148 304.387 460.482 305.68C459.828 306.96 458.862 308.047 457.582 308.94C456.302 309.833 454.748 310.52 452.922 311L451.822 308.94C453.355 308.553 454.622 308.047 455.622 307.42C456.635 306.78 457.395 306.053 457.902 305.24C458.422 304.413 458.682 303.54 458.682 302.62V301.28ZM452.762 301.28H460.262V303.4H452.762V301.28ZM454.282 311.78H466.642V318.78H463.982V313.88H454.282V311.78ZM479.929 309.76H482.589V313.8H479.929V309.76ZM488.029 300.24H490.689V314.28H488.029V300.24ZM477.349 316.32H491.109V318.46H477.349V316.32ZM477.349 312.94H480.009V316.9H477.349V312.94ZM475.369 310.56L475.029 308.44C476.162 308.427 477.396 308.413 478.729 308.4C480.062 308.373 481.422 308.32 482.809 308.24C484.196 308.16 485.529 308.04 486.809 307.88L486.989 309.78C485.669 310.007 484.322 310.18 482.949 310.3C481.589 310.407 480.262 310.473 478.969 310.5C477.676 310.527 476.476 310.547 475.369 310.56ZM484.549 311H488.629V312.82H484.549V311ZM480.989 300.88C481.896 300.88 482.696 301.02 483.389 301.3C484.082 301.58 484.622 301.967 485.009 302.46C485.409 302.953 485.609 303.533 485.609 304.2C485.609 304.853 485.409 305.433 485.009 305.94C484.622 306.433 484.082 306.813 483.389 307.08C482.696 307.347 481.896 307.48 480.989 307.48C480.082 307.48 479.276 307.347 478.569 307.08C477.876 306.813 477.336 306.433 476.949 305.94C476.562 305.433 476.369 304.853 476.369 304.2C476.369 303.533 476.562 302.953 476.949 302.46C477.336 301.967 477.876 301.58 478.569 301.3C479.276 301.02 480.082 300.88 480.989 300.88ZM480.989 302.82C480.376 302.82 479.869 302.933 479.469 303.16C479.082 303.387 478.889 303.733 478.889 304.2C478.889 304.64 479.082 304.98 479.469 305.22C479.869 305.447 480.376 305.56 480.989 305.56C481.616 305.56 482.116 305.447 482.489 305.22C482.876 304.98 483.069 304.64 483.069 304.2C483.069 303.893 482.982 303.64 482.809 303.44C482.636 303.24 482.396 303.087 482.089 302.98C481.782 302.873 481.416 302.82 480.989 302.82ZM493.488 309.7H510.248V311.8H493.488V309.7ZM495.528 316.32H508.368V318.46H495.528V316.32ZM495.528 313.04H498.188V317H495.528V313.04ZM501.868 300.8C503.214 300.8 504.388 300.953 505.388 301.26C506.401 301.567 507.188 302.007 507.748 302.58C508.308 303.153 508.588 303.827 508.588 304.6C508.588 305.387 508.308 306.067 507.748 306.64C507.188 307.213 506.401 307.653 505.388 307.96C504.388 308.267 503.214 308.42 501.868 308.42C500.534 308.42 499.361 308.267 498.348 307.96C497.348 307.653 496.568 307.213 496.008 306.64C495.448 306.067 495.168 305.387 495.168 304.6C495.168 303.827 495.448 303.153 496.008 302.58C496.568 302.007 497.348 301.567 498.348 301.26C499.361 300.953 500.534 300.8 501.868 300.8ZM501.868 302.9C501.054 302.9 500.348 302.967 499.748 303.1C499.148 303.233 498.694 303.427 498.388 303.68C498.081 303.92 497.928 304.227 497.928 304.6C497.928 304.973 498.081 305.287 498.388 305.54C498.694 305.793 499.148 305.987 499.748 306.12C500.348 306.253 501.054 306.32 501.868 306.32C502.708 306.32 503.421 306.253 504.008 306.12C504.594 305.987 505.041 305.793 505.348 305.54C505.668 305.287 505.828 304.973 505.828 304.6C505.828 304.227 505.668 303.92 505.348 303.68C505.041 303.427 504.594 303.233 504.008 303.1C503.421 302.967 502.708 302.9 501.868 302.9ZM528.395 300.26H531.055V318.78H528.395V300.26ZM530.455 307.48H533.715V309.68H530.455V307.48ZM516.435 302.98H527.235V305.1H516.435V302.98ZM521.875 306.16C522.768 306.16 523.568 306.353 524.275 306.74C524.982 307.113 525.535 307.627 525.935 308.28C526.348 308.933 526.555 309.693 526.555 310.56C526.555 311.427 526.348 312.193 525.935 312.86C525.535 313.513 524.982 314.033 524.275 314.42C523.582 314.793 522.782 314.98 521.875 314.98C520.982 314.98 520.175 314.793 519.455 314.42C518.748 314.033 518.188 313.513 517.775 312.86C517.375 312.193 517.175 311.427 517.175 310.56C517.175 309.693 517.375 308.933 517.775 308.28C518.188 307.627 518.748 307.113 519.455 306.74C520.175 306.353 520.982 306.16 521.875 306.16ZM521.875 308.32C521.448 308.32 521.075 308.407 520.755 308.58C520.435 308.753 520.182 309.007 519.995 309.34C519.808 309.673 519.715 310.08 519.715 310.56C519.715 311.027 519.808 311.433 519.995 311.78C520.182 312.113 520.435 312.373 520.755 312.56C521.075 312.733 521.448 312.82 521.875 312.82C522.288 312.82 522.655 312.733 522.975 312.56C523.295 312.373 523.548 312.113 523.735 311.78C523.922 311.433 524.015 311.027 524.015 310.56C524.015 310.08 523.922 309.673 523.735 309.34C523.548 309.007 523.295 308.753 522.975 308.58C522.655 308.407 522.288 308.32 521.875 308.32ZM520.515 300.56H523.195V303.8H520.515V300.56ZM548.753 307.24H552.013V309.44H548.753V307.24ZM546.753 300.22H549.433V318.74H546.753V300.22ZM535.493 302H538.133V313.52H535.493V302ZM535.493 312.02H537.073C538.393 312.02 539.767 311.967 541.193 311.86C542.62 311.753 544.08 311.553 545.573 311.26L545.853 313.42C544.307 313.74 542.8 313.96 541.333 314.08C539.867 314.187 538.447 314.24 537.073 314.24H535.493V312.02ZM559.292 301.48C560.252 301.48 561.118 301.673 561.892 302.06C562.665 302.447 563.272 302.987 563.712 303.68C564.152 304.36 564.372 305.147 564.372 306.04C564.372 306.92 564.152 307.707 563.712 308.4C563.272 309.093 562.665 309.633 561.892 310.02C561.118 310.407 560.252 310.6 559.292 310.6C558.318 310.6 557.445 310.407 556.672 310.02C555.898 309.633 555.285 309.093 554.832 308.4C554.392 307.707 554.172 306.92 554.172 306.04C554.172 305.147 554.392 304.36 554.832 303.68C555.285 302.987 555.898 302.447 556.672 302.06C557.445 301.673 558.318 301.48 559.292 301.48ZM559.292 303.76C558.812 303.76 558.378 303.853 557.992 304.04C557.618 304.213 557.318 304.473 557.092 304.82C556.878 305.153 556.772 305.56 556.772 306.04C556.772 306.52 556.878 306.933 557.092 307.28C557.318 307.627 557.618 307.893 557.992 308.08C558.378 308.253 558.812 308.34 559.292 308.34C559.758 308.34 560.178 308.253 560.552 308.08C560.925 307.893 561.218 307.627 561.432 307.28C561.658 306.933 561.772 306.52 561.772 306.04C561.772 305.56 561.658 305.153 561.432 304.82C561.218 304.473 560.925 304.213 560.552 304.04C560.178 303.853 559.758 303.76 559.292 303.76ZM566.112 300.22H568.772V318.8H566.112V300.22ZM553.712 315.06L553.412 312.9C554.492 312.9 555.685 312.893 556.992 312.88C558.312 312.853 559.665 312.8 561.052 312.72C562.452 312.627 563.805 312.487 565.112 312.3L565.292 314.22C563.958 314.487 562.605 314.68 561.232 314.8C559.858 314.907 558.532 314.98 557.252 315.02C555.972 315.047 554.792 315.06 553.712 315.06ZM584.719 300.6C586.092 300.6 587.279 300.747 588.279 301.04C589.279 301.32 590.052 301.733 590.599 302.28C591.159 302.813 591.439 303.453 591.439 304.2C591.439 304.947 591.159 305.593 590.599 306.14C590.052 306.673 589.279 307.087 588.279 307.38C587.279 307.673 586.092 307.82 584.719 307.82C583.372 307.82 582.192 307.673 581.179 307.38C580.166 307.087 579.386 306.673 578.839 306.14C578.292 305.593 578.019 304.947 578.019 304.2C578.019 303.453 578.292 302.813 578.839 302.28C579.386 301.733 580.166 301.32 581.179 301.04C582.192 300.747 583.372 300.6 584.719 300.6ZM584.719 302.64C583.892 302.64 583.179 302.7 582.579 302.82C581.979 302.927 581.526 303.093 581.219 303.32C580.926 303.547 580.779 303.84 580.779 304.2C580.779 304.547 580.926 304.84 581.219 305.08C581.526 305.307 581.979 305.48 582.579 305.6C583.179 305.707 583.892 305.76 584.719 305.76C585.572 305.76 586.292 305.707 586.879 305.6C587.466 305.48 587.912 305.307 588.219 305.08C588.526 304.84 588.679 304.547 588.679 304.2C588.679 303.84 588.526 303.547 588.219 303.32C587.912 303.093 587.466 302.927 586.879 302.82C586.292 302.7 585.572 302.64 584.719 302.64ZM578.299 312.26H591.099V318.58H578.299V312.26ZM588.499 314.36H580.899V316.48H588.499V314.36ZM576.339 308.88H593.099V310.96H576.339V308.88ZM599.898 301.26C600.858 301.26 601.718 301.46 602.478 301.86C603.238 302.247 603.838 302.78 604.278 303.46C604.718 304.127 604.938 304.9 604.938 305.78C604.938 306.673 604.718 307.46 604.278 308.14C603.838 308.82 603.238 309.353 602.478 309.74C601.718 310.127 600.858 310.32 599.898 310.32C598.951 310.32 598.098 310.127 597.338 309.74C596.578 309.353 595.978 308.82 595.538 308.14C595.098 307.46 594.878 306.673 594.878 305.78C594.878 304.9 595.098 304.127 595.538 303.46C595.978 302.78 596.578 302.247 597.338 301.86C598.098 301.46 598.951 301.26 599.898 301.26ZM599.898 303.5C599.444 303.5 599.031 303.593 598.658 303.78C598.284 303.953 597.991 304.213 597.778 304.56C597.578 304.893 597.478 305.3 597.478 305.78C597.478 306.273 597.578 306.693 597.778 307.04C597.991 307.373 598.284 307.633 598.658 307.82C599.031 307.993 599.444 308.08 599.898 308.08C600.378 308.08 600.798 307.993 601.158 307.82C601.518 307.633 601.804 307.373 602.018 307.04C602.231 306.693 602.338 306.273 602.338 305.78C602.338 305.3 602.231 304.893 602.018 304.56C601.804 304.213 601.518 303.953 601.158 303.78C600.798 303.593 600.378 303.5 599.898 303.5ZM606.658 300.26H609.318V311.08H606.658V300.26ZM608.598 304.56H611.778V306.76H608.598V304.56ZM596.958 311.88H609.318V318.78H606.658V313.98H596.958V311.88ZM619.745 309.78H632.765V311.88H619.745V309.78ZM617.785 314.5H634.565V316.66H617.785V314.5ZM619.745 301.6H632.625V303.72H622.445V310.36H619.745V301.6ZM621.625 305.68H632.205V307.74H621.625V305.68ZM649.423 300.24H651.963V311.8H649.423V300.24ZM647.243 304.88H650.183V307H647.243V304.88ZM645.483 300.58H647.963V311.66H645.483V300.58ZM639.223 312.56H651.963V318.78H649.303V314.66H639.223V312.56ZM636.923 308.96H638.203C639.083 308.96 639.877 308.953 640.583 308.94C641.303 308.913 641.983 308.867 642.623 308.8C643.277 308.733 643.943 308.64 644.623 308.52L644.823 310.62C644.13 310.74 643.45 310.833 642.783 310.9C642.117 310.953 641.41 310.993 640.663 311.02C639.93 311.033 639.11 311.04 638.203 311.04H636.923V308.96ZM636.883 301.52H643.923V307.2H639.483V310.32H636.923V305.26H641.343V303.6H636.883V301.52ZM662.962 300.5C665.068 300.5 666.708 300.773 667.882 301.32C669.068 301.867 669.662 302.653 669.662 303.68C669.662 304.693 669.068 305.473 667.882 306.02C666.708 306.567 665.068 306.84 662.962 306.84C660.842 306.84 659.188 306.567 658.002 306.02C656.828 305.473 656.242 304.693 656.242 303.68C656.242 302.653 656.828 301.867 658.002 301.32C659.188 300.773 660.842 300.5 662.962 300.5ZM662.942 302.46C662.062 302.46 661.328 302.507 660.742 302.6C660.155 302.68 659.715 302.813 659.422 303C659.142 303.173 659.002 303.4 659.002 303.68C659.002 303.96 659.142 304.193 659.422 304.38C659.715 304.553 660.155 304.68 660.742 304.76C661.328 304.84 662.062 304.88 662.942 304.88C663.835 304.88 664.575 304.84 665.162 304.76C665.748 304.68 666.182 304.553 666.462 304.38C666.742 304.193 666.882 303.96 666.882 303.68C666.882 303.4 666.742 303.173 666.462 303C666.182 302.813 665.748 302.68 665.162 302.6C664.575 302.507 663.835 302.46 662.942 302.46ZM654.562 307.7H671.322V309.8H654.562V307.7ZM656.482 310.84H669.282V315.58H659.142V317.22H656.502V313.74H666.662V312.8H656.482V310.84ZM656.502 316.64H669.782V318.66H656.502V316.64ZM683.569 301.48C684.529 301.48 685.396 301.673 686.169 302.06C686.942 302.447 687.549 302.987 687.989 303.68C688.429 304.36 688.649 305.147 688.649 306.04C688.649 306.92 688.429 307.707 687.989 308.4C687.549 309.093 686.942 309.633 686.169 310.02C685.396 310.407 684.529 310.6 683.569 310.6C682.596 310.6 681.722 310.407 680.949 310.02C680.176 309.633 679.562 309.093 679.109 308.4C678.669 307.707 678.449 306.92 678.449 306.04C678.449 305.147 678.669 304.36 679.109 303.68C679.562 302.987 680.176 302.447 680.949 302.06C681.722 301.673 682.596 301.48 683.569 301.48ZM683.569 303.76C683.089 303.76 682.656 303.853 682.269 304.04C681.896 304.213 681.596 304.473 681.369 304.82C681.156 305.153 681.049 305.56 681.049 306.04C681.049 306.52 681.156 306.933 681.369 307.28C681.596 307.627 681.896 307.893 682.269 308.08C682.656 308.253 683.089 308.34 683.569 308.34C684.036 308.34 684.456 308.253 684.829 308.08C685.202 307.893 685.496 307.627 685.709 307.28C685.936 306.933 686.049 306.52 686.049 306.04C686.049 305.56 685.936 305.153 685.709 304.82C685.496 304.473 685.202 304.213 684.829 304.04C684.456 303.853 684.036 303.76 683.569 303.76ZM690.389 300.22H693.049V318.8H690.389V300.22ZM677.989 315.06L677.689 312.9C678.769 312.9 679.962 312.893 681.269 312.88C682.589 312.853 683.942 312.8 685.329 312.72C686.729 312.627 688.082 312.487 689.389 312.3L689.569 314.22C688.236 314.487 686.882 314.68 685.509 314.8C684.136 314.907 682.809 314.98 681.529 315.02C680.249 315.047 679.069 315.06 677.989 315.06ZM696.908 301.9H705.808V314.36H696.908V301.9ZM703.208 304H699.528V312.26H703.208V304ZM708.708 300.22H711.368V318.8H708.708V300.22ZM726.306 300.26H728.966V311.1H726.306V300.26ZM727.926 304.7H731.426V306.88H727.926V304.7ZM716.926 311.82H719.566V313.2H726.346V311.82H728.966V318.58H716.926V311.82ZM719.566 315.2V316.5H726.346V315.2H719.566ZM714.406 301.86H725.286V303.96H714.406V301.86ZM719.846 304.44C720.753 304.44 721.546 304.58 722.226 304.86C722.906 305.127 723.439 305.507 723.826 306C724.213 306.493 724.406 307.067 724.406 307.72C724.406 308.373 724.213 308.947 723.826 309.44C723.439 309.933 722.906 310.32 722.226 310.6C721.546 310.867 720.753 311 719.846 311C718.953 311 718.159 310.867 717.466 310.6C716.786 310.32 716.253 309.933 715.866 309.44C715.479 308.947 715.286 308.373 715.286 307.72C715.286 307.067 715.479 306.493 715.866 306C716.253 305.507 716.786 305.127 717.466 304.86C718.159 304.58 718.953 304.44 719.846 304.44ZM719.846 306.38C719.259 306.38 718.779 306.5 718.406 306.74C718.033 306.967 717.846 307.293 717.846 307.72C717.846 308.16 718.033 308.5 718.406 308.74C718.779 308.967 719.259 309.08 719.846 309.08C720.446 309.08 720.926 308.967 721.286 308.74C721.659 308.5 721.846 308.16 721.846 307.72C721.846 307.293 721.659 306.967 721.286 306.74C720.926 306.5 720.446 306.38 719.846 306.38ZM718.526 300.1H721.166V303.02H718.526V300.1ZM745.624 300.24H748.264V318.76H745.624V300.24ZM733.764 302H736.424V313.52H733.764V302ZM733.764 311.94H735.404C736.764 311.94 738.184 311.887 739.664 311.78C741.144 311.66 742.651 311.447 744.184 311.14L744.464 313.36C742.891 313.693 741.338 313.92 739.804 314.04C738.284 314.147 736.818 314.2 735.404 314.2H733.764V311.94ZM763.023 300.22H765.703V318.8H763.023V300.22ZM765.123 307.08H768.383V309.28H765.123V307.08ZM751.903 312.16H753.463C754.516 312.16 755.503 312.147 756.423 312.12C757.343 312.08 758.236 312.02 759.103 311.94C759.969 311.847 760.856 311.72 761.763 311.56L762.023 313.76C761.089 313.92 760.169 314.047 759.263 314.14C758.369 314.233 757.449 314.293 756.503 314.32C755.556 314.347 754.543 314.36 753.463 314.36H751.903V312.16ZM751.903 301.94H760.543V304.08H754.563V313.2H751.903V301.94ZM771.757 317.185C771.288 317.185 770.886 317.019 770.55 316.688C770.218 316.351 770.053 315.949 770.053 315.48C770.053 315.016 770.218 314.618 770.55 314.287C770.886 313.955 771.288 313.79 771.757 313.79C772.212 313.79 772.609 313.955 772.95 314.287C773.291 314.618 773.462 315.016 773.462 315.48C773.462 315.793 773.381 316.079 773.22 316.339C773.064 316.595 772.858 316.801 772.602 316.957C772.347 317.109 772.065 317.185 771.757 317.185Z" fill="black"/>
<path d="M462.326 359.18H466.626V361.34H462.326V359.18ZM457.126 356.38H459.266V358.38C459.266 359.633 459.086 360.813 458.726 361.92C458.366 363.027 457.806 363.993 457.046 364.82C456.3 365.633 455.34 366.253 454.166 366.68L452.766 364.6C453.54 364.333 454.2 363.987 454.746 363.56C455.293 363.133 455.74 362.647 456.086 362.1C456.433 361.54 456.693 360.947 456.866 360.32C457.04 359.693 457.126 359.047 457.126 358.38V356.38ZM457.686 356.38H459.806V358.4C459.806 359 459.886 359.587 460.046 360.16C460.206 360.733 460.453 361.28 460.786 361.8C461.12 362.32 461.546 362.787 462.066 363.2C462.6 363.6 463.226 363.927 463.946 364.18L462.546 366.22C461.44 365.807 460.526 365.213 459.806 364.44C459.086 363.667 458.553 362.76 458.206 361.72C457.86 360.68 457.686 359.573 457.686 358.4V356.38ZM465.706 355.26H468.386V368.92H465.706V355.26ZM456.126 371.32H468.786V373.46H456.126V371.32ZM456.126 367.56H458.786V372.52H456.126V367.56ZM471.905 363.7H473.185C474.078 363.7 474.878 363.693 475.585 363.68C476.305 363.653 476.985 363.613 477.625 363.56C478.265 363.493 478.925 363.407 479.605 363.3L479.845 365.42C479.138 365.54 478.452 365.633 477.785 365.7C477.118 365.767 476.412 365.807 475.665 365.82C474.932 365.833 474.105 365.84 473.185 365.84H471.905V363.7ZM471.905 356.48H479.185V358.6H474.465V364.88H471.905V356.48ZM473.705 360.12H479.005V362.12H473.705V360.12ZM484.525 355.24H487.065V366.56H484.525V355.24ZM482.325 359.78H485.265V361.92H482.325V359.78ZM480.585 355.58H483.065V366.44H480.585V355.58ZM474.325 367.34H487.065V373.78H484.405V369.48H474.325V367.34ZM501.583 355.26H504.243V369.1H501.583V355.26ZM503.503 360.9H506.703V363.1H503.503V360.9ZM489.683 357.2H500.563V359.28H489.683V357.2ZM495.123 359.94C496.017 359.94 496.803 360.093 497.483 360.4C498.177 360.693 498.717 361.113 499.103 361.66C499.49 362.193 499.683 362.807 499.683 363.5C499.683 364.207 499.49 364.833 499.103 365.38C498.717 365.913 498.177 366.333 497.483 366.64C496.803 366.933 496.017 367.08 495.123 367.08C494.243 367.08 493.457 366.933 492.763 366.64C492.07 366.333 491.53 365.913 491.143 365.38C490.757 364.833 490.563 364.207 490.563 363.5C490.563 362.807 490.757 362.193 491.143 361.66C491.53 361.113 492.07 360.693 492.763 360.4C493.457 360.093 494.243 359.94 495.123 359.94ZM495.123 361.96C494.537 361.96 494.057 362.093 493.683 362.36C493.31 362.627 493.123 363.013 493.123 363.52C493.123 364.013 493.31 364.393 493.683 364.66C494.057 364.927 494.537 365.06 495.123 365.06C495.723 365.06 496.203 364.927 496.563 364.66C496.937 364.393 497.123 364.013 497.123 363.52C497.123 363.013 496.937 362.627 496.563 362.36C496.203 362.093 495.723 361.96 495.123 361.96ZM493.803 355.24H496.443V358.2H493.803V355.24ZM492.303 371.32H504.903V373.46H492.303V371.32ZM492.303 368.06H494.983V372.24H492.303V368.06ZM521.071 355.6C522.444 355.6 523.631 355.747 524.631 356.04C525.631 356.32 526.404 356.733 526.951 357.28C527.511 357.813 527.791 358.453 527.791 359.2C527.791 359.947 527.511 360.593 526.951 361.14C526.404 361.673 525.631 362.087 524.631 362.38C523.631 362.673 522.444 362.82 521.071 362.82C519.724 362.82 518.544 362.673 517.531 362.38C516.517 362.087 515.737 361.673 515.191 361.14C514.644 360.593 514.371 359.947 514.371 359.2C514.371 358.453 514.644 357.813 515.191 357.28C515.737 356.733 516.517 356.32 517.531 356.04C518.544 355.747 519.724 355.6 521.071 355.6ZM521.071 357.64C520.244 357.64 519.531 357.7 518.931 357.82C518.331 357.927 517.877 358.093 517.571 358.32C517.277 358.547 517.131 358.84 517.131 359.2C517.131 359.547 517.277 359.84 517.571 360.08C517.877 360.307 518.331 360.48 518.931 360.6C519.531 360.707 520.244 360.76 521.071 360.76C521.924 360.76 522.644 360.707 523.231 360.6C523.817 360.48 524.264 360.307 524.571 360.08C524.877 359.84 525.031 359.547 525.031 359.2C525.031 358.84 524.877 358.547 524.571 358.32C524.264 358.093 523.817 357.927 523.231 357.82C522.644 357.7 521.924 357.64 521.071 357.64ZM514.651 367.26H527.451V373.58H514.651V367.26ZM524.851 369.36H517.251V371.48H524.851V369.36ZM512.691 363.88H529.451V365.96H512.691V363.88ZM536.249 356.26C537.209 356.26 538.069 356.46 538.829 356.86C539.589 357.247 540.189 357.78 540.629 358.46C541.069 359.127 541.289 359.9 541.289 360.78C541.289 361.673 541.069 362.46 540.629 363.14C540.189 363.82 539.589 364.353 538.829 364.74C538.069 365.127 537.209 365.32 536.249 365.32C535.302 365.32 534.449 365.127 533.689 364.74C532.929 364.353 532.329 363.82 531.889 363.14C531.449 362.46 531.229 361.673 531.229 360.78C531.229 359.9 531.449 359.127 531.889 358.46C532.329 357.78 532.929 357.247 533.689 356.86C534.449 356.46 535.302 356.26 536.249 356.26ZM536.249 358.5C535.796 358.5 535.382 358.593 535.009 358.78C534.636 358.953 534.342 359.213 534.129 359.56C533.929 359.893 533.829 360.3 533.829 360.78C533.829 361.273 533.929 361.693 534.129 362.04C534.342 362.373 534.636 362.633 535.009 362.82C535.382 362.993 535.796 363.08 536.249 363.08C536.729 363.08 537.149 362.993 537.509 362.82C537.869 362.633 538.156 362.373 538.369 362.04C538.582 361.693 538.689 361.273 538.689 360.78C538.689 360.3 538.582 359.893 538.369 359.56C538.156 359.213 537.869 358.953 537.509 358.78C537.149 358.593 536.729 358.5 536.249 358.5ZM543.009 355.26H545.669V366.08H543.009V355.26ZM544.949 359.56H548.129V361.76H544.949V359.56ZM533.309 366.88H545.669V373.78H543.009V368.98H533.309V366.88ZM561.328 355.22H564.008V373.74H561.328V355.22ZM563.328 362.32H566.588V364.5H563.328V362.32ZM556.468 357.14H559.088C559.088 358.993 558.821 360.747 558.288 362.4C557.768 364.053 556.901 365.573 555.688 366.96C554.488 368.333 552.861 369.533 550.808 370.56L549.308 368.54C550.934 367.7 552.274 366.753 553.328 365.7C554.394 364.647 555.181 363.453 555.688 362.12C556.208 360.773 556.468 359.273 556.468 357.62V357.14ZM550.328 357.14H557.848V359.28H550.328V357.14ZM575.306 362.06H578.346V364.2H575.306V362.06ZM581.266 355.24H583.806V373.76H581.266V355.24ZM577.506 355.54H579.986V372.94H577.506V355.54ZM572.066 356.54C572.879 356.54 573.586 356.813 574.186 357.36C574.799 357.893 575.266 358.667 575.586 359.68C575.919 360.68 576.086 361.88 576.086 363.28C576.086 364.667 575.919 365.867 575.586 366.88C575.266 367.893 574.799 368.673 574.186 369.22C573.586 369.753 572.873 370.02 572.046 370.02C571.246 370.02 570.539 369.753 569.926 369.22C569.326 368.673 568.859 367.893 568.526 366.88C568.206 365.867 568.046 364.667 568.046 363.28C568.046 361.88 568.206 360.68 568.526 359.68C568.859 358.667 569.326 357.893 569.926 357.36C570.539 356.813 571.253 356.54 572.066 356.54ZM572.066 359.06C571.733 359.06 571.446 359.213 571.206 359.52C570.966 359.827 570.779 360.293 570.646 360.92C570.526 361.533 570.466 362.32 570.466 363.28C570.466 364.213 570.526 364.993 570.646 365.62C570.779 366.247 570.966 366.72 571.206 367.04C571.446 367.347 571.733 367.5 572.066 367.5C572.399 367.5 572.686 367.347 572.926 367.04C573.179 366.72 573.366 366.247 573.486 365.62C573.606 364.993 573.666 364.213 573.666 363.28C573.666 362.32 573.606 361.533 573.486 360.92C573.366 360.293 573.179 359.827 572.926 359.52C572.686 359.213 572.399 359.06 572.066 359.06ZM590.913 358.04H599.773V360.14H590.913V358.04ZM595.373 360.98C596.16 360.98 596.853 361.167 597.453 361.54C598.067 361.913 598.547 362.433 598.893 363.1C599.253 363.753 599.433 364.513 599.433 365.38C599.433 366.247 599.253 367.013 598.893 367.68C598.547 368.333 598.067 368.847 597.453 369.22C596.853 369.593 596.16 369.78 595.373 369.78C594.587 369.78 593.887 369.593 593.273 369.22C592.66 368.847 592.18 368.333 591.833 367.68C591.487 367.013 591.313 366.247 591.313 365.38C591.313 364.513 591.487 363.753 591.833 363.1C592.18 362.433 592.66 361.913 593.273 361.54C593.9 361.167 594.6 360.98 595.373 360.98ZM595.373 363.18C595.053 363.18 594.76 363.267 594.493 363.44C594.227 363.613 594.02 363.867 593.873 364.2C593.727 364.52 593.653 364.913 593.653 365.38C593.653 365.847 593.727 366.247 593.873 366.58C594.02 366.913 594.227 367.167 594.493 367.34C594.76 367.5 595.053 367.58 595.373 367.58C595.707 367.58 596 367.5 596.253 367.34C596.507 367.167 596.707 366.913 596.853 366.58C597 366.247 597.073 365.847 597.073 365.38C597.073 364.913 597 364.52 596.853 364.2C596.707 363.867 596.507 363.613 596.253 363.44C596 363.267 595.707 363.18 595.373 363.18ZM604.313 355.24H606.833V373.76H604.313V355.24ZM602.093 362.78H605.133V364.92H602.093V362.78ZM600.413 355.58H602.893V372.98H600.413V355.58ZM594.073 355.74H596.693V359.36H594.073V355.74ZM621.252 355.24H623.932V365.94H621.252V355.24ZM623.172 359.62H626.352V361.8H623.172V359.62ZM617.852 366.26C619.132 366.26 620.238 366.413 621.172 366.72C622.105 367.027 622.825 367.46 623.332 368.02C623.852 368.567 624.112 369.233 624.112 370.02C624.112 370.807 623.852 371.48 623.332 372.04C622.825 372.613 622.105 373.047 621.172 373.34C620.238 373.647 619.132 373.8 617.852 373.8C616.585 373.8 615.478 373.647 614.532 373.34C613.585 373.047 612.852 372.613 612.332 372.04C611.825 371.48 611.572 370.807 611.572 370.02C611.572 369.233 611.825 368.567 612.332 368.02C612.852 367.46 613.585 367.027 614.532 366.72C615.478 366.413 616.585 366.26 617.852 366.26ZM617.852 368.38C617.065 368.38 616.405 368.44 615.872 368.56C615.338 368.68 614.925 368.86 614.632 369.1C614.352 369.34 614.212 369.647 614.212 370.02C614.212 370.38 614.352 370.687 614.632 370.94C614.925 371.18 615.338 371.36 615.872 371.48C616.405 371.6 617.065 371.66 617.852 371.66C618.638 371.66 619.298 371.6 619.832 371.48C620.378 371.36 620.792 371.18 621.072 370.94C621.352 370.687 621.492 370.38 621.492 370.02C621.492 369.647 621.352 369.34 621.072 369.1C620.792 368.86 620.378 368.68 619.832 368.56C619.298 368.44 618.638 368.38 617.852 368.38ZM609.952 362.84H611.512C612.872 362.84 614.032 362.827 614.992 362.8C615.952 362.773 616.812 362.72 617.572 362.64C618.332 362.547 619.085 362.42 619.832 362.26L620.092 364.38C619.332 364.54 618.558 364.667 617.772 364.76C616.985 364.84 616.092 364.9 615.092 364.94C614.105 364.967 612.912 364.98 611.512 364.98H609.952V362.84ZM609.952 356.48H618.252V358.62H612.612V364.3H609.952V356.48ZM639.59 355.26H642.25V373.78H639.59V355.26ZM641.65 362.48H644.91V364.68H641.65V362.48ZM627.63 357.98H638.43V360.1H627.63V357.98ZM633.07 361.16C633.963 361.16 634.763 361.353 635.47 361.74C636.177 362.113 636.73 362.627 637.13 363.28C637.543 363.933 637.75 364.693 637.75 365.56C637.75 366.427 637.543 367.193 637.13 367.86C636.73 368.513 636.177 369.033 635.47 369.42C634.777 369.793 633.977 369.98 633.07 369.98C632.177 369.98 631.37 369.793 630.65 369.42C629.943 369.033 629.383 368.513 628.97 367.86C628.57 367.193 628.37 366.427 628.37 365.56C628.37 364.693 628.57 363.933 628.97 363.28C629.383 362.627 629.943 362.113 630.65 361.74C631.37 361.353 632.177 361.16 633.07 361.16ZM633.07 363.32C632.643 363.32 632.27 363.407 631.95 363.58C631.63 363.753 631.377 364.007 631.19 364.34C631.003 364.673 630.91 365.08 630.91 365.56C630.91 366.027 631.003 366.433 631.19 366.78C631.377 367.113 631.63 367.373 631.95 367.56C632.27 367.733 632.643 367.82 633.07 367.82C633.483 367.82 633.85 367.733 634.17 367.56C634.49 367.373 634.743 367.113 634.93 366.78C635.117 366.433 635.21 366.027 635.21 365.56C635.21 365.08 635.117 364.673 634.93 364.34C634.743 364.007 634.49 363.753 634.17 363.58C633.85 363.407 633.483 363.32 633.07 363.32ZM631.71 355.56H634.39V358.8H631.71V355.56ZM648.189 360.24H661.029V362.36H648.189V360.24ZM646.129 364.28H662.889V366.4H646.129V364.28ZM648.189 355.9H650.849V361.3H648.189V355.9ZM648.029 371.24H661.129V373.38H648.029V371.24ZM648.029 367.86H650.689V371.82H648.029V367.86ZM677.516 355.6C678.889 355.6 680.076 355.747 681.076 356.04C682.076 356.32 682.849 356.733 683.396 357.28C683.956 357.813 684.236 358.453 684.236 359.2C684.236 359.947 683.956 360.593 683.396 361.14C682.849 361.673 682.076 362.087 681.076 362.38C680.076 362.673 678.889 362.82 677.516 362.82C676.169 362.82 674.989 362.673 673.976 362.38C672.963 362.087 672.183 361.673 671.636 361.14C671.089 360.593 670.816 359.947 670.816 359.2C670.816 358.453 671.089 357.813 671.636 357.28C672.183 356.733 672.963 356.32 673.976 356.04C674.989 355.747 676.169 355.6 677.516 355.6ZM677.516 357.64C676.689 357.64 675.976 357.7 675.376 357.82C674.776 357.927 674.323 358.093 674.016 358.32C673.723 358.547 673.576 358.84 673.576 359.2C673.576 359.547 673.723 359.84 674.016 360.08C674.323 360.307 674.776 360.48 675.376 360.6C675.976 360.707 676.689 360.76 677.516 360.76C678.369 360.76 679.089 360.707 679.676 360.6C680.263 360.48 680.709 360.307 681.016 360.08C681.323 359.84 681.476 359.547 681.476 359.2C681.476 358.84 681.323 358.547 681.016 358.32C680.709 358.093 680.263 357.927 679.676 357.82C679.089 357.7 678.369 357.64 677.516 357.64ZM671.096 367.26H683.896V373.58H671.096V367.26ZM681.296 369.36H673.696V371.48H681.296V369.36ZM669.136 363.88H685.896V365.96H669.136V363.88ZM692.694 356.26C693.654 356.26 694.514 356.46 695.274 356.86C696.034 357.247 696.634 357.78 697.074 358.46C697.514 359.127 697.734 359.9 697.734 360.78C697.734 361.673 697.514 362.46 697.074 363.14C696.634 363.82 696.034 364.353 695.274 364.74C694.514 365.127 693.654 365.32 692.694 365.32C691.748 365.32 690.894 365.127 690.134 364.74C689.374 364.353 688.774 363.82 688.334 363.14C687.894 362.46 687.674 361.673 687.674 360.78C687.674 359.9 687.894 359.127 688.334 358.46C688.774 357.78 689.374 357.247 690.134 356.86C690.894 356.46 691.748 356.26 692.694 356.26ZM692.694 358.5C692.241 358.5 691.828 358.593 691.454 358.78C691.081 358.953 690.788 359.213 690.574 359.56C690.374 359.893 690.274 360.3 690.274 360.78C690.274 361.273 690.374 361.693 690.574 362.04C690.788 362.373 691.081 362.633 691.454 362.82C691.828 362.993 692.241 363.08 692.694 363.08C693.174 363.08 693.594 362.993 693.954 362.82C694.314 362.633 694.601 362.373 694.814 362.04C695.028 361.693 695.134 361.273 695.134 360.78C695.134 360.3 695.028 359.893 694.814 359.56C694.601 359.213 694.314 358.953 693.954 358.78C693.594 358.593 693.174 358.5 692.694 358.5ZM699.454 355.26H702.114V366.08H699.454V355.26ZM701.394 359.56H704.574V361.76H701.394V359.56ZM689.754 366.88H702.114V373.78H699.454V368.98H689.754V366.88ZM711.913 356.48C712.873 356.48 713.739 356.673 714.513 357.06C715.286 357.447 715.893 357.987 716.333 358.68C716.773 359.36 716.993 360.147 716.993 361.04C716.993 361.92 716.773 362.707 716.333 363.4C715.893 364.093 715.286 364.633 714.513 365.02C713.739 365.407 712.873 365.6 711.913 365.6C710.939 365.6 710.066 365.407 709.293 365.02C708.519 364.633 707.906 364.093 707.453 363.4C707.013 362.707 706.793 361.92 706.793 361.04C706.793 360.147 707.013 359.36 707.453 358.68C707.906 357.987 708.519 357.447 709.293 357.06C710.066 356.673 710.939 356.48 711.913 356.48ZM711.913 358.76C711.433 358.76 710.999 358.853 710.613 359.04C710.239 359.213 709.939 359.473 709.713 359.82C709.499 360.153 709.393 360.56 709.393 361.04C709.393 361.52 709.499 361.933 709.713 362.28C709.939 362.627 710.239 362.893 710.613 363.08C710.999 363.253 711.433 363.34 711.913 363.34C712.379 363.34 712.799 363.253 713.173 363.08C713.546 362.893 713.839 362.627 714.053 362.28C714.279 361.933 714.393 361.52 714.393 361.04C714.393 360.56 714.279 360.153 714.053 359.82C713.839 359.473 713.546 359.213 713.173 359.04C712.799 358.853 712.379 358.76 711.913 358.76ZM718.733 355.22H721.393V373.8H718.733V355.22ZM706.333 370.06L706.033 367.9C707.113 367.9 708.306 367.893 709.613 367.88C710.933 367.853 712.286 367.8 713.673 367.72C715.073 367.627 716.426 367.487 717.733 367.3L717.913 369.22C716.579 369.487 715.226 369.68 713.853 369.8C712.479 369.907 711.153 369.98 709.873 370.02C708.593 370.047 707.413 370.06 706.333 370.06ZM739.02 359.72H742.54V361.88H739.02V359.72ZM741.8 355.26H744.48V366.26H741.8V355.26ZM738.2 366.66C739.507 366.66 740.633 366.8 741.58 367.08C742.527 367.36 743.253 367.767 743.76 368.3C744.28 368.833 744.54 369.473 744.54 370.22C744.54 371.367 743.973 372.247 742.84 372.86C741.707 373.487 740.16 373.8 738.2 373.8C736.24 373.8 734.693 373.487 733.56 372.86C732.427 372.247 731.86 371.367 731.86 370.22C731.86 369.473 732.113 368.833 732.62 368.3C733.14 367.767 733.873 367.36 734.82 367.08C735.767 366.8 736.893 366.66 738.2 366.66ZM738.2 368.68C737.4 368.68 736.727 368.74 736.18 368.86C735.633 368.967 735.213 369.133 734.92 369.36C734.64 369.587 734.5 369.873 734.5 370.22C734.5 370.567 734.64 370.86 734.92 371.1C735.213 371.327 735.633 371.5 736.18 371.62C736.727 371.727 737.4 371.78 738.2 371.78C739 371.78 739.673 371.727 740.22 371.62C740.767 371.5 741.18 371.327 741.46 371.1C741.74 370.86 741.88 370.567 741.88 370.22C741.88 369.873 741.74 369.587 741.46 369.36C741.18 369.133 740.767 368.967 740.22 368.86C739.673 368.74 739 368.68 738.2 368.68ZM733.26 357.1H735.42V358.28C735.42 359.453 735.233 360.573 734.86 361.64C734.487 362.707 733.913 363.647 733.14 364.46C732.38 365.26 731.407 365.86 730.22 366.26L728.88 364.16C729.64 363.907 730.293 363.567 730.84 363.14C731.4 362.713 731.853 362.24 732.2 361.72C732.56 361.187 732.827 360.627 733 360.04C733.173 359.453 733.26 358.867 733.26 358.28V357.1ZM733.82 357.1H735.94V358.26C735.94 358.993 736.087 359.713 736.38 360.42C736.673 361.127 737.127 361.767 737.74 362.34C738.367 362.913 739.167 363.367 740.14 363.7L738.84 365.78C737.693 365.393 736.747 364.827 736 364.08C735.267 363.32 734.72 362.44 734.36 361.44C734 360.427 733.82 359.367 733.82 358.26V357.1ZM729.6 356.38H739.56V358.48H729.6V356.38ZM747.379 369.46H764.159V371.62H747.379V369.46ZM754.419 365.5H757.059V369.98H754.419V365.5ZM749.139 356.42H751.799V359.28H759.679V356.42H762.319V366.06H749.139V356.42ZM751.799 361.36V363.94H759.679V361.36H751.799ZM766.297 356.76H775.137V365.72H766.297V356.76ZM772.517 358.88H768.917V363.62H772.517V358.88ZM777.677 355.26H780.337V368.76H777.677V355.26ZM779.597 360.6H782.797V362.78H779.597V360.6ZM768.397 371.32H780.997V373.46H768.397V371.32ZM768.397 367.44H771.077V372.4H768.397V367.44ZM788.804 369.46H805.584V371.62H788.804V369.46ZM795.844 365.5H798.484V369.98H795.844V365.5ZM790.564 356.42H793.224V359.28H801.104V356.42H803.744V366.06H790.564V356.42ZM793.224 361.36V363.94H801.104V361.36H793.224ZM815.483 359.02H820.523V361.16H815.483V359.02ZM815.483 364.78H820.523V366.92H815.483V364.78ZM812.263 356.52C813.183 356.52 814.003 356.793 814.723 357.34C815.456 357.873 816.023 358.64 816.423 359.64C816.836 360.627 817.043 361.793 817.043 363.14C817.043 364.5 816.836 365.68 816.423 366.68C816.023 367.667 815.456 368.433 814.723 368.98C814.003 369.513 813.183 369.78 812.263 369.78C811.343 369.78 810.523 369.513 809.803 368.98C809.083 368.433 808.516 367.667 808.103 366.68C807.689 365.68 807.483 364.5 807.483 363.14C807.483 361.793 807.689 360.627 808.103 359.64C808.516 358.64 809.083 357.873 809.803 357.34C810.523 356.793 811.343 356.52 812.263 356.52ZM812.263 358.94C811.823 358.94 811.429 359.1 811.083 359.42C810.749 359.74 810.483 360.213 810.283 360.84C810.096 361.453 810.003 362.22 810.003 363.14C810.003 364.047 810.096 364.82 810.283 365.46C810.483 366.087 810.749 366.56 811.083 366.88C811.429 367.2 811.823 367.36 812.263 367.36C812.729 367.36 813.129 367.2 813.463 366.88C813.796 366.56 814.056 366.087 814.243 365.46C814.429 364.82 814.523 364.047 814.523 363.14C814.523 362.22 814.429 361.453 814.243 360.84C814.056 360.213 813.796 359.74 813.463 359.42C813.129 359.1 812.729 358.94 812.263 358.94ZM820.083 355.22H822.743V373.8H820.083V355.22ZM830.081 356.84H832.261V357.98C832.261 359.087 832.068 360.14 831.681 361.14C831.308 362.14 830.728 363.007 829.941 363.74C829.168 364.473 828.181 365.027 826.981 365.4L825.661 363.32C826.435 363.093 827.095 362.793 827.641 362.42C828.201 362.033 828.661 361.607 829.021 361.14C829.381 360.66 829.648 360.153 829.821 359.62C829.995 359.073 830.081 358.527 830.081 357.98V356.84ZM830.641 356.84H832.801V357.98C832.801 358.5 832.888 359.013 833.061 359.52C833.235 360.013 833.495 360.487 833.841 360.94C834.201 361.393 834.655 361.8 835.201 362.16C835.748 362.507 836.401 362.793 837.161 363.02L835.841 365.08C834.681 364.733 833.715 364.213 832.941 363.52C832.168 362.813 831.588 361.98 831.201 361.02C830.828 360.06 830.641 359.047 830.641 357.98V356.84ZM826.381 356.24H836.461V358.34H826.381V356.24ZM838.321 355.26H840.981V365.3H838.321V355.26ZM828.681 366.1H831.301V367.78H838.341V366.1H840.981V373.58H828.681V366.1ZM831.301 369.82V371.44H838.341V369.82H831.301ZM856.82 355.24H859.46V373.76H856.82V355.24ZM844.96 357H847.62V368.52H844.96V357ZM844.96 366.94H846.6C847.96 366.94 849.38 366.887 850.86 366.78C852.34 366.66 853.846 366.447 855.38 366.14L855.66 368.36C854.086 368.693 852.533 368.92 851 369.04C849.48 369.147 848.013 369.2 846.6 369.2H844.96V366.94ZM874.218 355.22H876.898V373.8H874.218V355.22ZM876.318 362.08H879.578V364.28H876.318V362.08ZM863.098 367.16H864.658C865.711 367.16 866.698 367.147 867.618 367.12C868.538 367.08 869.431 367.02 870.298 366.94C871.165 366.847 872.051 366.72 872.958 366.56L873.218 368.76C872.285 368.92 871.365 369.047 870.458 369.14C869.565 369.233 868.645 369.293 867.698 369.32C866.751 369.347 865.738 369.36 864.658 369.36H863.098V367.16ZM863.098 356.94H871.738V359.08H865.758V368.2H863.098V356.94ZM882.952 372.185C882.484 372.185 882.081 372.019 881.745 371.688C881.414 371.351 881.248 370.949 881.248 370.48C881.248 370.016 881.414 369.618 881.745 369.287C882.081 368.955 882.484 368.79 882.952 368.79C883.407 368.79 883.805 368.955 884.146 369.287C884.487 369.618 884.657 370.016 884.657 370.48C884.657 370.793 884.576 371.079 884.415 371.339C884.259 371.595 884.053 371.801 883.798 371.957C883.542 372.109 883.26 372.185 882.952 372.185Z" fill="black"/>
<path d="M463.64 532.76H466.3V536.8H463.64V532.76ZM471.74 523.24H474.4V537.28H471.74V523.24ZM461.06 539.32H474.82V541.46H461.06V539.32ZM461.06 535.94H463.72V539.9H461.06V535.94ZM459.08 533.56L458.74 531.44C459.873 531.427 461.107 531.413 462.44 531.4C463.773 531.373 465.133 531.32 466.52 531.24C467.907 531.16 469.24 531.04 470.52 530.88L470.7 532.78C469.38 533.007 468.033 533.18 466.66 533.3C465.3 533.407 463.973 533.473 462.68 533.5C461.387 533.527 460.187 533.547 459.08 533.56ZM468.26 534H472.34V535.82H468.26V534ZM464.7 523.88C465.607 523.88 466.407 524.02 467.1 524.3C467.793 524.58 468.333 524.967 468.72 525.46C469.12 525.953 469.32 526.533 469.32 527.2C469.32 527.853 469.12 528.433 468.72 528.94C468.333 529.433 467.793 529.813 467.1 530.08C466.407 530.347 465.607 530.48 464.7 530.48C463.793 530.48 462.987 530.347 462.28 530.08C461.587 529.813 461.047 529.433 460.66 528.94C460.273 528.433 460.08 527.853 460.08 527.2C460.08 526.533 460.273 525.953 460.66 525.46C461.047 524.967 461.587 524.58 462.28 524.3C462.987 524.02 463.793 523.88 464.7 523.88ZM464.7 525.82C464.087 525.82 463.58 525.933 463.18 526.16C462.793 526.387 462.6 526.733 462.6 527.2C462.6 527.64 462.793 527.98 463.18 528.22C463.58 528.447 464.087 528.56 464.7 528.56C465.327 528.56 465.827 528.447 466.2 528.22C466.587 527.98 466.78 527.64 466.78 527.2C466.78 526.893 466.693 526.64 466.52 526.44C466.347 526.24 466.107 526.087 465.8 525.98C465.493 525.873 465.127 525.82 464.7 525.82ZM483.178 524.48C484.138 524.48 485.005 524.673 485.778 525.06C486.552 525.447 487.158 525.987 487.598 526.68C488.038 527.36 488.258 528.147 488.258 529.04C488.258 529.92 488.038 530.707 487.598 531.4C487.158 532.093 486.552 532.633 485.778 533.02C485.005 533.407 484.138 533.6 483.178 533.6C482.205 533.6 481.332 533.407 480.558 533.02C479.785 532.633 479.172 532.093 478.718 531.4C478.278 530.707 478.058 529.92 478.058 529.04C478.058 528.147 478.278 527.36 478.718 526.68C479.172 525.987 479.785 525.447 480.558 525.06C481.332 524.673 482.205 524.48 483.178 524.48ZM483.178 526.76C482.698 526.76 482.265 526.853 481.878 527.04C481.505 527.213 481.205 527.473 480.978 527.82C480.765 528.153 480.658 528.56 480.658 529.04C480.658 529.52 480.765 529.933 480.978 530.28C481.205 530.627 481.505 530.893 481.878 531.08C482.265 531.253 482.698 531.34 483.178 531.34C483.645 531.34 484.065 531.253 484.438 531.08C484.812 530.893 485.105 530.627 485.318 530.28C485.545 529.933 485.658 529.52 485.658 529.04C485.658 528.56 485.545 528.153 485.318 527.82C485.105 527.473 484.812 527.213 484.438 527.04C484.065 526.853 483.645 526.76 483.178 526.76ZM489.998 523.22H492.658V541.8H489.998V523.22ZM477.598 538.06L477.298 535.9C478.378 535.9 479.572 535.893 480.878 535.88C482.198 535.853 483.552 535.8 484.938 535.72C486.338 535.627 487.692 535.487 488.998 535.3L489.178 537.22C487.845 537.487 486.492 537.68 485.118 537.8C483.745 537.907 482.418 537.98 481.138 538.02C479.858 538.047 478.678 538.06 477.598 538.06ZM503.566 524.3H505.646V526.44C505.646 527.493 505.499 528.52 505.206 529.52C504.912 530.52 504.452 531.413 503.826 532.2C503.212 532.987 502.399 533.6 501.386 534.04L499.986 531.98C500.839 531.593 501.526 531.1 502.046 530.5C502.579 529.9 502.966 529.247 503.206 528.54C503.446 527.833 503.566 527.133 503.566 526.44V524.3ZM504.066 524.3H506.146V526.44C506.146 527.12 506.259 527.787 506.486 528.44C506.712 529.08 507.079 529.667 507.586 530.2C508.092 530.733 508.752 531.173 509.566 531.52L508.166 533.54C507.206 533.14 506.419 532.58 505.806 531.86C505.206 531.127 504.766 530.3 504.486 529.38C504.206 528.447 504.066 527.467 504.066 526.44V524.3ZM513.486 523.26H516.026V534.5H513.486V523.26ZM511.286 527.76H514.226V529.9H511.286V527.76ZM509.586 523.54H512.066V534.4H509.586V523.54ZM503.286 535.3H516.026V541.78H513.366V537.42H503.286V535.3ZM522.704 524.24H524.884V525.9C524.884 527.113 524.698 528.267 524.324 529.36C523.964 530.44 523.404 531.387 522.644 532.2C521.884 533.013 520.918 533.62 519.744 534.02L518.344 531.94C519.384 531.58 520.224 531.093 520.864 530.48C521.504 529.853 521.971 529.14 522.264 528.34C522.558 527.54 522.704 526.727 522.704 525.9V524.24ZM523.244 524.24H525.384V526.14C525.384 526.7 525.464 527.247 525.624 527.78C525.798 528.313 526.051 528.813 526.384 529.28C526.718 529.747 527.144 530.167 527.664 530.54C528.184 530.9 528.811 531.193 529.544 531.42L528.164 533.5C527.044 533.127 526.118 532.573 525.384 531.84C524.664 531.107 524.124 530.253 523.764 529.28C523.418 528.307 523.244 527.26 523.244 526.14V524.24ZM530.544 523.26H533.204V534.2H530.544V523.26ZM532.484 527.54H535.664V529.74H532.484V527.54ZM527.164 534.62C528.458 534.62 529.571 534.767 530.504 535.06C531.438 535.34 532.158 535.747 532.664 536.28C533.171 536.8 533.424 537.44 533.424 538.2C533.424 538.947 533.171 539.587 532.664 540.12C532.158 540.653 531.438 541.06 530.504 541.34C529.571 541.633 528.458 541.78 527.164 541.78C525.884 541.78 524.771 541.633 523.824 541.34C522.891 541.06 522.164 540.653 521.644 540.12C521.138 539.587 520.884 538.947 520.884 538.2C520.884 537.44 521.138 536.8 521.644 536.28C522.164 535.747 522.891 535.34 523.824 535.06C524.771 534.767 525.884 534.62 527.164 534.62ZM527.164 536.68C526.378 536.68 525.718 536.74 525.184 536.86C524.651 536.967 524.244 537.133 523.964 537.36C523.684 537.573 523.544 537.853 523.544 538.2C523.544 538.533 523.684 538.813 523.964 539.04C524.244 539.267 524.651 539.44 525.184 539.56C525.718 539.667 526.378 539.72 527.164 539.72C527.951 539.72 528.611 539.667 529.144 539.56C529.691 539.44 530.098 539.267 530.364 539.04C530.644 538.813 530.784 538.533 530.784 538.2C530.784 537.853 530.644 537.573 530.364 537.36C530.098 537.133 529.691 536.967 529.144 536.86C528.611 536.74 527.951 536.68 527.164 536.68ZM537.023 532.7H553.783V534.8H537.023V532.7ZM539.063 539.32H551.903V541.46H539.063V539.32ZM539.063 536.04H541.723V540H539.063V536.04ZM545.403 523.8C546.749 523.8 547.923 523.953 548.923 524.26C549.936 524.567 550.723 525.007 551.283 525.58C551.843 526.153 552.123 526.827 552.123 527.6C552.123 528.387 551.843 529.067 551.283 529.64C550.723 530.213 549.936 530.653 548.923 530.96C547.923 531.267 546.749 531.42 545.403 531.42C544.069 531.42 542.896 531.267 541.883 530.96C540.883 530.653 540.103 530.213 539.543 529.64C538.983 529.067 538.703 528.387 538.703 527.6C538.703 526.827 538.983 526.153 539.543 525.58C540.103 525.007 540.883 524.567 541.883 524.26C542.896 523.953 544.069 523.8 545.403 523.8ZM545.403 525.9C544.589 525.9 543.883 525.967 543.283 526.1C542.683 526.233 542.229 526.427 541.923 526.68C541.616 526.92 541.463 527.227 541.463 527.6C541.463 527.973 541.616 528.287 541.923 528.54C542.229 528.793 542.683 528.987 543.283 529.12C543.883 529.253 544.589 529.32 545.403 529.32C546.243 529.32 546.956 529.253 547.543 529.12C548.129 528.987 548.576 528.793 548.883 528.54C549.203 528.287 549.363 527.973 549.363 527.6C549.363 527.227 549.203 526.92 548.883 526.68C548.576 526.427 548.129 526.233 547.543 526.1C546.956 525.967 546.243 525.9 545.403 525.9ZM568.43 523.6C569.803 523.6 570.99 523.747 571.99 524.04C572.99 524.32 573.763 524.733 574.31 525.28C574.87 525.813 575.15 526.453 575.15 527.2C575.15 527.947 574.87 528.593 574.31 529.14C573.763 529.673 572.99 530.087 571.99 530.38C570.99 530.673 569.803 530.82 568.43 530.82C567.083 530.82 565.903 530.673 564.89 530.38C563.877 530.087 563.097 529.673 562.55 529.14C562.003 528.593 561.73 527.947 561.73 527.2C561.73 526.453 562.003 525.813 562.55 525.28C563.097 524.733 563.877 524.32 564.89 524.04C565.903 523.747 567.083 523.6 568.43 523.6ZM568.43 525.64C567.603 525.64 566.89 525.7 566.29 525.82C565.69 525.927 565.237 526.093 564.93 526.32C564.637 526.547 564.49 526.84 564.49 527.2C564.49 527.547 564.637 527.84 564.93 528.08C565.237 528.307 565.69 528.48 566.29 528.6C566.89 528.707 567.603 528.76 568.43 528.76C569.283 528.76 570.003 528.707 570.59 528.6C571.177 528.48 571.623 528.307 571.93 528.08C572.237 527.84 572.39 527.547 572.39 527.2C572.39 526.84 572.237 526.547 571.93 526.32C571.623 526.093 571.177 525.927 570.59 525.82C570.003 525.7 569.283 525.64 568.43 525.64ZM562.01 535.26H574.81V541.58H562.01V535.26ZM572.21 537.36H564.61V539.48H572.21V537.36ZM560.05 531.88H576.81V533.96H560.05V531.88ZM583.608 524.26C584.568 524.26 585.428 524.46 586.188 524.86C586.948 525.247 587.548 525.78 587.988 526.46C588.428 527.127 588.648 527.9 588.648 528.78C588.648 529.673 588.428 530.46 587.988 531.14C587.548 531.82 586.948 532.353 586.188 532.74C585.428 533.127 584.568 533.32 583.608 533.32C582.662 533.32 581.808 533.127 581.048 532.74C580.288 532.353 579.688 531.82 579.248 531.14C578.808 530.46 578.588 529.673 578.588 528.78C578.588 527.9 578.808 527.127 579.248 526.46C579.688 525.78 580.288 525.247 581.048 524.86C581.808 524.46 582.662 524.26 583.608 524.26ZM583.608 526.5C583.155 526.5 582.742 526.593 582.368 526.78C581.995 526.953 581.702 527.213 581.488 527.56C581.288 527.893 581.188 528.3 581.188 528.78C581.188 529.273 581.288 529.693 581.488 530.04C581.702 530.373 581.995 530.633 582.368 530.82C582.742 530.993 583.155 531.08 583.608 531.08C584.088 531.08 584.508 530.993 584.868 530.82C585.228 530.633 585.515 530.373 585.728 530.04C585.942 529.693 586.048 529.273 586.048 528.78C586.048 528.3 585.942 527.893 585.728 527.56C585.515 527.213 585.228 526.953 584.868 526.78C584.508 526.593 584.088 526.5 583.608 526.5ZM590.368 523.26H593.028V534.08H590.368V523.26ZM592.308 527.56H595.488V529.76H592.308V527.56ZM580.668 534.88H593.028V541.78H590.368V536.98H580.668V534.88ZM604.267 530.06H607.307V532.2H604.267V530.06ZM610.227 523.24H612.767V541.76H610.227V523.24ZM606.467 523.54H608.947V540.94H606.467V523.54ZM601.027 524.54C601.84 524.54 602.547 524.813 603.147 525.36C603.76 525.893 604.227 526.667 604.547 527.68C604.88 528.68 605.047 529.88 605.047 531.28C605.047 532.667 604.88 533.867 604.547 534.88C604.227 535.893 603.76 536.673 603.147 537.22C602.547 537.753 601.834 538.02 601.007 538.02C600.207 538.02 599.5 537.753 598.887 537.22C598.287 536.673 597.82 535.893 597.487 534.88C597.167 533.867 597.007 532.667 597.007 531.28C597.007 529.88 597.167 528.68 597.487 527.68C597.82 526.667 598.287 525.893 598.887 525.36C599.5 524.813 600.214 524.54 601.027 524.54ZM601.027 527.06C600.694 527.06 600.407 527.213 600.167 527.52C599.927 527.827 599.74 528.293 599.607 528.92C599.487 529.533 599.427 530.32 599.427 531.28C599.427 532.213 599.487 532.993 599.607 533.62C599.74 534.247 599.927 534.72 600.167 535.04C600.407 535.347 600.694 535.5 601.027 535.5C601.36 535.5 601.647 535.347 601.887 535.04C602.14 534.72 602.327 534.247 602.447 533.62C602.567 532.993 602.627 532.213 602.627 531.28C602.627 530.32 602.567 529.533 602.447 528.92C602.327 528.293 602.14 527.827 601.887 527.52C601.647 527.213 601.36 527.06 601.027 527.06ZM624.605 529.04H629.485V531.18H624.605V529.04ZM619.565 524.66H621.705V527.36C621.705 528.52 621.605 529.647 621.405 530.74C621.205 531.833 620.899 532.853 620.485 533.8C620.072 534.747 619.545 535.58 618.905 536.3C618.279 537.02 617.532 537.6 616.665 538.04L615.005 535.92C615.792 535.547 616.465 535.06 617.025 534.46C617.599 533.86 618.072 533.18 618.445 532.42C618.832 531.647 619.112 530.833 619.285 529.98C619.472 529.113 619.565 528.24 619.565 527.36V524.66ZM620.105 524.66H622.225V527.36C622.225 528.227 622.312 529.087 622.485 529.94C622.659 530.78 622.919 531.567 623.265 532.3C623.625 533.033 624.085 533.687 624.645 534.26C625.205 534.82 625.872 535.273 626.645 535.62L625.045 537.74C624.179 537.313 623.432 536.753 622.805 536.06C622.179 535.353 621.665 534.547 621.265 533.64C620.879 532.733 620.585 531.747 620.385 530.68C620.199 529.613 620.105 528.507 620.105 527.36V524.66ZM628.145 523.22H630.805V541.8H628.145V523.22ZM650.113 523.22H652.793V541.74H650.113V523.22ZM652.113 530.32H655.373V532.5H652.113V530.32ZM645.253 525.14H647.873C647.873 526.993 647.606 528.747 647.073 530.4C646.553 532.053 645.686 533.573 644.473 534.96C643.273 536.333 641.646 537.533 639.593 538.56L638.093 536.54C639.719 535.7 641.059 534.753 642.113 533.7C643.179 532.647 643.966 531.453 644.473 530.12C644.993 528.773 645.253 527.273 645.253 525.62V525.14ZM639.113 525.14H646.633V527.28H639.113V525.14ZM660.811 525.32H662.991V526.48C662.991 527.653 662.798 528.767 662.411 529.82C662.038 530.873 661.464 531.8 660.691 532.6C659.918 533.387 658.938 533.973 657.751 534.36L656.431 532.26C657.444 531.927 658.271 531.46 658.911 530.86C659.564 530.247 660.044 529.56 660.351 528.8C660.658 528.027 660.811 527.253 660.811 526.48V525.32ZM661.351 525.32H663.491V526.48C663.491 527.2 663.638 527.9 663.931 528.58C664.224 529.247 664.678 529.847 665.291 530.38C665.918 530.913 666.731 531.333 667.731 531.64L666.451 533.72C665.278 533.373 664.311 532.84 663.551 532.12C662.804 531.387 662.251 530.54 661.891 529.58C661.531 528.607 661.351 527.573 661.351 526.48V525.32ZM657.111 524.48H667.131V526.6H657.111V524.48ZM668.591 523.26H671.251V534.24H668.591V523.26ZM670.531 527.5H673.711V529.68H670.531V527.5ZM665.211 534.56C666.504 534.56 667.618 534.707 668.551 535C669.484 535.28 670.204 535.687 670.711 536.22C671.218 536.753 671.471 537.4 671.471 538.16C671.471 538.92 671.218 539.567 670.711 540.1C670.204 540.647 669.484 541.06 668.551 541.34C667.618 541.633 666.504 541.78 665.211 541.78C663.931 541.78 662.818 541.633 661.871 541.34C660.938 541.06 660.211 540.647 659.691 540.1C659.184 539.567 658.931 538.92 658.931 538.16C658.931 537.4 659.184 536.753 659.691 536.22C660.211 535.687 660.938 535.28 661.871 535C662.818 534.707 663.931 534.56 665.211 534.56ZM665.211 536.64C664.424 536.64 663.764 536.693 663.231 536.8C662.698 536.907 662.291 537.073 662.011 537.3C661.731 537.527 661.591 537.813 661.591 538.16C661.591 538.52 661.731 538.813 662.011 539.04C662.291 539.267 662.698 539.44 663.231 539.56C663.764 539.667 664.424 539.72 665.211 539.72C665.998 539.72 666.658 539.667 667.191 539.56C667.738 539.44 668.144 539.267 668.411 539.04C668.691 538.813 668.831 538.52 668.831 538.16C668.831 537.813 668.691 537.527 668.411 537.3C668.144 537.073 667.738 536.907 667.191 536.8C666.658 536.693 665.998 536.64 665.211 536.64ZM681.778 524.08H693.498V526.18H681.778V524.08ZM679.698 532.1H696.478V534.2H679.698V532.1ZM691.898 524.08H694.518V525.8C694.518 526.787 694.492 527.827 694.438 528.92C694.398 530.013 694.232 531.273 693.938 532.7L691.298 532.44C691.605 531.067 691.778 529.86 691.818 528.82C691.872 527.767 691.898 526.76 691.898 525.8V524.08ZM692.718 527.82V529.76L681.558 530.2L681.238 528.08L692.718 527.82ZM681.658 539.32H694.798V541.46H681.658V539.32ZM681.658 535.54H684.318V539.84H681.658V535.54ZM704.866 529.8H717.586V531.92H704.866V529.8ZM702.746 533.74H719.506V535.88H702.746V533.74ZM709.726 534.96H712.386V541.76H709.726V534.96ZM704.866 524.22H717.386V526.34H707.586V530.82H704.866V524.22ZM739.093 523.24H741.613V541.76H739.093V523.24ZM736.733 530.22H739.813V532.36H736.733V530.22ZM731.213 525.52H733.773C733.773 526.827 733.66 528.067 733.433 529.24C733.22 530.413 732.86 531.527 732.353 532.58C731.846 533.62 731.16 534.593 730.293 535.5C729.44 536.393 728.366 537.22 727.073 537.98L725.533 536.12C726.933 535.293 728.046 534.387 728.873 533.4C729.713 532.4 730.313 531.3 730.673 530.1C731.033 528.887 731.213 527.54 731.213 526.06V525.52ZM726.453 525.52H731.993V527.64H726.453V525.52ZM734.973 523.72H737.473V540.96H734.973V523.72ZM750.132 524.48C751.092 524.48 751.958 524.673 752.732 525.06C753.505 525.447 754.112 525.987 754.552 526.68C754.992 527.36 755.212 528.147 755.212 529.04C755.212 529.92 754.992 530.707 754.552 531.4C754.112 532.093 753.505 532.633 752.732 533.02C751.958 533.407 751.092 533.6 750.132 533.6C749.158 533.6 748.285 533.407 747.512 533.02C746.738 532.633 746.125 532.093 745.672 531.4C745.232 530.707 745.012 529.92 745.012 529.04C745.012 528.147 745.232 527.36 745.672 526.68C746.125 525.987 746.738 525.447 747.512 525.06C748.285 524.673 749.158 524.48 750.132 524.48ZM750.132 526.76C749.652 526.76 749.218 526.853 748.832 527.04C748.458 527.213 748.158 527.473 747.932 527.82C747.718 528.153 747.612 528.56 747.612 529.04C747.612 529.52 747.718 529.933 747.932 530.28C748.158 530.627 748.458 530.893 748.832 531.08C749.218 531.253 749.652 531.34 750.132 531.34C750.598 531.34 751.018 531.253 751.392 531.08C751.765 530.893 752.058 530.627 752.272 530.28C752.498 529.933 752.612 529.52 752.612 529.04C752.612 528.56 752.498 528.153 752.272 527.82C752.058 527.473 751.765 527.213 751.392 527.04C751.018 526.853 750.598 526.76 750.132 526.76ZM756.952 523.22H759.612V541.8H756.952V523.22ZM744.552 538.06L744.252 535.9C745.332 535.9 746.525 535.893 747.832 535.88C749.152 535.853 750.505 535.8 751.892 535.72C753.292 535.627 754.645 535.487 755.952 535.3L756.132 537.22C754.798 537.487 753.445 537.68 752.072 537.8C750.698 537.907 749.372 537.98 748.092 538.02C746.812 538.047 745.632 538.06 744.552 538.06ZM468.86 559.72H472.38V561.88H468.86V559.72ZM471.64 555.26H474.32V566.26H471.64V555.26ZM468.04 566.66C469.347 566.66 470.473 566.8 471.42 567.08C472.367 567.36 473.093 567.767 473.6 568.3C474.12 568.833 474.38 569.473 474.38 570.22C474.38 571.367 473.813 572.247 472.68 572.86C471.547 573.487 470 573.8 468.04 573.8C466.08 573.8 464.533 573.487 463.4 572.86C462.267 572.247 461.7 571.367 461.7 570.22C461.7 569.473 461.953 568.833 462.46 568.3C462.98 567.767 463.713 567.36 464.66 567.08C465.607 566.8 466.733 566.66 468.04 566.66ZM468.04 568.68C467.24 568.68 466.567 568.74 466.02 568.86C465.473 568.967 465.053 569.133 464.76 569.36C464.48 569.587 464.34 569.873 464.34 570.22C464.34 570.567 464.48 570.86 464.76 571.1C465.053 571.327 465.473 571.5 466.02 571.62C466.567 571.727 467.24 571.78 468.04 571.78C468.84 571.78 469.513 571.727 470.06 571.62C470.607 571.5 471.02 571.327 471.3 571.1C471.58 570.86 471.72 570.567 471.72 570.22C471.72 569.873 471.58 569.587 471.3 569.36C471.02 569.133 470.607 568.967 470.06 568.86C469.513 568.74 468.84 568.68 468.04 568.68ZM463.1 557.1H465.26V558.28C465.26 559.453 465.073 560.573 464.7 561.64C464.327 562.707 463.753 563.647 462.98 564.46C462.22 565.26 461.247 565.86 460.06 566.26L458.72 564.16C459.48 563.907 460.133 563.567 460.68 563.14C461.24 562.713 461.693 562.24 462.04 561.72C462.4 561.187 462.667 560.627 462.84 560.04C463.013 559.453 463.1 558.867 463.1 558.28V557.1ZM463.66 557.1H465.78V558.26C465.78 558.993 465.927 559.713 466.22 560.42C466.513 561.127 466.967 561.767 467.58 562.34C468.207 562.913 469.007 563.367 469.98 563.7L468.68 565.78C467.533 565.393 466.587 564.827 465.84 564.08C465.107 563.32 464.56 562.44 464.2 561.44C463.84 560.427 463.66 559.367 463.66 558.26V557.1ZM459.44 556.38H469.4V558.48H459.44V556.38ZM486.558 561.04H491.438V563.18H486.558V561.04ZM481.518 556.66H483.658V559.36C483.658 560.52 483.558 561.647 483.358 562.74C483.158 563.833 482.852 564.853 482.438 565.8C482.025 566.747 481.498 567.58 480.858 568.3C480.232 569.02 479.485 569.6 478.618 570.04L476.958 567.92C477.745 567.547 478.418 567.06 478.978 566.46C479.552 565.86 480.025 565.18 480.398 564.42C480.785 563.647 481.065 562.833 481.238 561.98C481.425 561.113 481.518 560.24 481.518 559.36V556.66ZM482.058 556.66H484.178V559.36C484.178 560.227 484.265 561.087 484.438 561.94C484.612 562.78 484.872 563.567 485.218 564.3C485.578 565.033 486.038 565.687 486.598 566.26C487.158 566.82 487.825 567.273 488.598 567.62L486.998 569.74C486.132 569.313 485.385 568.753 484.758 568.06C484.132 567.353 483.618 566.547 483.218 565.64C482.832 564.733 482.538 563.747 482.338 562.68C482.152 561.613 482.058 560.507 482.058 559.36V556.66ZM490.098 555.22H492.758V573.8H490.098V555.22ZM495.617 563.56H512.377V565.48H495.617V563.56ZM497.497 566.42H510.397V570.82H500.157V572.4H497.517V569.14H507.777V568.22H497.497V566.42ZM497.517 571.82H510.917V573.62H497.517V571.82ZM497.657 555.56H510.337V559.94H500.317V561.44H497.697V558.26H507.717V557.36H497.657V555.56ZM497.697 560.9H510.677V562.7H497.697V560.9ZM524.604 556.48C525.564 556.48 526.431 556.673 527.204 557.06C527.978 557.447 528.584 557.987 529.024 558.68C529.464 559.36 529.684 560.147 529.684 561.04C529.684 561.92 529.464 562.707 529.024 563.4C528.584 564.093 527.978 564.633 527.204 565.02C526.431 565.407 525.564 565.6 524.604 565.6C523.631 565.6 522.758 565.407 521.984 565.02C521.211 564.633 520.598 564.093 520.144 563.4C519.704 562.707 519.484 561.92 519.484 561.04C519.484 560.147 519.704 559.36 520.144 558.68C520.598 557.987 521.211 557.447 521.984 557.06C522.758 556.673 523.631 556.48 524.604 556.48ZM524.604 558.76C524.124 558.76 523.691 558.853 523.304 559.04C522.931 559.213 522.631 559.473 522.404 559.82C522.191 560.153 522.084 560.56 522.084 561.04C522.084 561.52 522.191 561.933 522.404 562.28C522.631 562.627 522.931 562.893 523.304 563.08C523.691 563.253 524.124 563.34 524.604 563.34C525.071 563.34 525.491 563.253 525.864 563.08C526.238 562.893 526.531 562.627 526.744 562.28C526.971 561.933 527.084 561.52 527.084 561.04C527.084 560.56 526.971 560.153 526.744 559.82C526.531 559.473 526.238 559.213 525.864 559.04C525.491 558.853 525.071 558.76 524.604 558.76ZM531.424 555.22H534.084V573.8H531.424V555.22ZM519.024 570.06L518.724 567.9C519.804 567.9 520.998 567.893 522.304 567.88C523.624 567.853 524.978 567.8 526.364 567.72C527.764 567.627 529.118 567.487 530.424 567.3L530.604 569.22C529.271 569.487 527.918 569.68 526.544 569.8C525.171 569.907 523.844 569.98 522.564 570.02C521.284 570.047 520.104 570.06 519.024 570.06ZM537.943 556.9H546.843V569.36H537.943V556.9ZM544.243 559H540.563V567.26H544.243V559ZM549.743 555.22H552.403V573.8H549.743V555.22ZM567.341 555.26H570.001V566.1H567.341V555.26ZM568.961 559.7H572.461V561.88H568.961V559.7ZM557.961 566.82H560.601V568.2H567.381V566.82H570.001V573.58H557.961V566.82ZM560.601 570.2V571.5H567.381V570.2H560.601ZM555.441 556.86H566.321V558.96H555.441V556.86ZM560.881 559.44C561.788 559.44 562.581 559.58 563.261 559.86C563.941 560.127 564.474 560.507 564.861 561C565.248 561.493 565.441 562.067 565.441 562.72C565.441 563.373 565.248 563.947 564.861 564.44C564.474 564.933 563.941 565.32 563.261 565.6C562.581 565.867 561.788 566 560.881 566C559.988 566 559.194 565.867 558.501 565.6C557.821 565.32 557.288 564.933 556.901 564.44C556.514 563.947 556.321 563.373 556.321 562.72C556.321 562.067 556.514 561.493 556.901 561C557.288 560.507 557.821 560.127 558.501 559.86C559.194 559.58 559.988 559.44 560.881 559.44ZM560.881 561.38C560.294 561.38 559.814 561.5 559.441 561.74C559.068 561.967 558.881 562.293 558.881 562.72C558.881 563.16 559.068 563.5 559.441 563.74C559.814 563.967 560.294 564.08 560.881 564.08C561.481 564.08 561.961 563.967 562.321 563.74C562.694 563.5 562.881 563.16 562.881 562.72C562.881 562.293 562.694 561.967 562.321 561.74C561.961 561.5 561.481 561.38 560.881 561.38ZM559.561 555.1H562.201V558.02H559.561V555.1ZM586.66 555.24H589.3V573.76H586.66V555.24ZM574.8 557H577.46V568.52H574.8V557ZM574.8 566.94H576.44C577.8 566.94 579.22 566.887 580.7 566.78C582.18 566.66 583.686 566.447 585.22 566.14L585.5 568.36C583.926 568.693 582.373 568.92 580.84 569.04C579.32 569.147 577.853 569.2 576.44 569.2H574.8V566.94ZM604.058 555.22H606.738V573.8H604.058V555.22ZM606.158 562.08H609.418V564.28H606.158V562.08ZM592.938 567.16H594.498C595.551 567.16 596.538 567.147 597.458 567.12C598.378 567.08 599.271 567.02 600.138 566.94C601.005 566.847 601.891 566.72 602.798 566.56L603.058 568.76C602.125 568.92 601.205 569.047 600.298 569.14C599.405 569.233 598.485 569.293 597.538 569.32C596.591 569.347 595.578 569.36 594.498 569.36H592.938V567.16ZM592.938 556.94H601.578V559.08H595.598V568.2H592.938V556.94ZM612.792 572.185C612.324 572.185 611.921 572.019 611.585 571.688C611.253 571.351 611.088 570.949 611.088 570.48C611.088 570.016 611.253 569.618 611.585 569.287C611.921 568.955 612.324 568.79 612.792 568.79C613.247 568.79 613.645 568.955 613.985 569.287C614.326 569.618 614.497 570.016 614.497 570.48C614.497 570.793 614.416 571.079 614.255 571.339C614.099 571.595 613.893 571.801 613.637 571.957C613.382 572.109 613.1 572.185 612.792 572.185Z" fill="black"/>
<circle cx="140.141" cy="340.141" r="24.141" fill="black"/>
<circle cx="198.216" cy="339.935" r="23.9347" fill="black"/>
<circle cx="256.291" cy="340.141" r="24.141" fill="#BCBCBC"/>
<circle cx="314.366" cy="339.935" r="23.9347" fill="black"/>
<circle cx="372.236" cy="339.935" r="23.9347" fill="#BCBCBC"/>
<path d="M140.347 364.695C133.89 364.695 127.697 362.13 123.131 357.564C118.565 352.998 116 346.805 116 340.347C116 333.89 118.565 327.697 123.131 323.131C127.697 318.565 133.89 316 140.347 316L140.347 340.347L140.347 364.695Z" fill="#854F1C"/>
<path d="M198.945 364.695C192.488 364.695 186.295 362.13 181.729 357.564C177.163 352.998 174.598 346.805 174.598 340.347C174.598 333.89 177.163 327.697 181.729 323.131C186.295 318.565 192.488 316 198.945 316L198.945 340.347L198.945 364.695Z" fill="#854F1C"/>
<path d="M314.347 364.695C307.89 364.695 301.697 362.13 297.131 357.564C292.565 352.998 290 346.805 290 340.347C290 333.89 292.565 327.697 297.131 323.131C301.697 318.565 307.89 316 314.347 316L314.347 340.347L314.347 364.695Z" fill="#854F1C"/>
<path d="M140.347 316C143.545 316 146.711 316.63 149.665 317.853C152.619 319.077 155.303 320.87 157.564 323.131C159.824 325.392 161.618 328.076 162.841 331.03C164.065 333.984 164.695 337.15 164.695 340.347C164.695 343.545 164.065 346.711 162.841 349.665C161.618 352.619 159.824 355.303 157.564 357.564C155.303 359.824 152.619 361.618 149.665 362.841C146.711 364.065 143.545 364.695 140.347 364.695L140.347 340.347L140.347 316Z" fill="#E9A751"/>
<path d="M314.347 316C317.545 316 320.711 316.63 323.665 317.853C326.619 319.077 329.303 320.87 331.564 323.131C333.824 325.392 335.618 328.076 336.841 331.03C338.065 333.984 338.695 337.15 338.695 340.347C338.695 343.545 338.065 346.711 336.841 349.665C335.618 352.619 333.824 355.303 331.564 357.564C329.303 359.824 326.619 361.618 323.665 362.841C320.711 364.065 317.545 364.695 314.347 364.695L314.347 340.347L314.347 316Z" fill="#355D67"/>
<path d="M198.945 316C202.142 316 205.308 316.63 208.262 317.853C211.216 319.077 213.9 320.87 216.161 323.131C218.422 325.392 220.216 328.076 221.439 331.03C222.663 333.984 223.292 337.15 223.292 340.347C223.292 343.545 222.663 346.711 221.439 349.665C220.216 352.619 218.422 355.303 216.161 357.564C213.9 359.824 211.216 361.618 208.262 362.841C205.308 364.065 202.142 364.695 198.945 364.695L198.945 340.347L198.945 316Z" fill="#355D67"/>
<path d="M251 601C236.944 601 223.463 595.416 213.523 585.477C203.584 575.537 198 562.056 198 548C198 533.944 203.584 520.463 213.523 510.523C223.463 500.584 236.944 495 251 495L251 548L251 601Z" fill="#854F1C"/>
<path d="M251 495C257.96 495 264.852 496.371 271.282 499.034C277.712 501.698 283.555 505.602 288.477 510.523C293.398 515.445 297.302 521.288 299.966 527.718C302.629 534.148 304 541.04 304 548C304 554.96 302.629 561.852 299.966 568.282C297.302 574.712 293.398 580.555 288.477 585.477C283.555 590.398 277.712 594.302 271.282 596.966C264.852 599.629 257.96 601 251 601L251 548L251 495Z" fill="#E9A751"/>
</svg>
