<?xml version="1.0" encoding="UTF-8"?>
<!--Generator: Apple Native CoreSVG 232.5-->
<!DOCTYPE svg
PUBLIC "-//W3C//DTD SVG 1.1//EN"
       "http://www.w3.org/Graphics/SVG/1.1/DTD/svg11.dtd">
<svg version="1.1" xmlns="http://www.w3.org/2000/svg" xmlns:xlink="http://www.w3.org/1999/xlink" width="78.8574" height="78.8574">
 <g>
  <rect height="78.8574" opacity="0" width="78.8574" x="0" y="0"/>
  <path d="M78.8574 39.4043C78.8574 60.9375 60.9375 78.8086 39.4043 78.8086C17.9199 78.8086 0 60.9375 0 39.4043C0 17.8711 17.8711 0 39.3555 0C60.8887 0 78.8574 17.8711 78.8574 39.4043ZM42.5781 20.6543L27.002 35.1562C24.5605 37.4512 24.5605 41.5039 27.002 43.75L42.5781 58.3008C43.75 59.4238 46.0449 59.5215 47.168 58.3984C48.5352 57.0801 48.4863 54.9805 47.2168 53.7598L31.8848 39.4531L47.2168 25.1953C48.5352 23.9258 48.4863 21.7773 47.1191 20.5078C45.8984 19.3359 43.8965 19.4336 42.5781 20.6543Z" fill="#000000" fill-opacity="0.85"/>
 </g>
</svg>
