<svg width="571" height="406" viewBox="0 0 571 406" fill="none" xmlns="http://www.w3.org/2000/svg">
<rect x="1.5" y="53.5" width="568" height="80" rx="38.5" stroke="#854F1C" stroke-width="3"/>
<rect x="1.5" y="201.5" width="568" height="203" rx="38.5" stroke="#854F1C" stroke-width="3"/>
<path d="M92.4453 101V86.8594H94.5938V93.5977H94.7695L100.688 86.8594H103.383L97.6797 93.2266L103.402 101H100.805L96.2539 94.6914L94.5938 96.6055V101H92.4453ZM108.773 101.215C105.648 101.215 103.734 99.0664 103.734 95.7656C103.734 92.5039 105.688 90.2578 108.637 90.2578C111.059 90.2578 113.344 91.7617 113.344 95.5898V96.332H105.805C105.863 98.3438 107.045 99.4961 108.793 99.4961C109.984 99.4961 110.746 98.9883 111.098 98.3438H113.207C112.738 100.062 111.098 101.215 108.773 101.215ZM105.824 94.7695H111.293C111.293 93.1484 110.258 91.9766 108.656 91.9766C106.986 91.9766 105.902 93.2656 105.824 94.7695ZM116.371 104.984C115.941 104.984 115.531 104.965 115.258 104.926V103.188C115.492 103.207 115.902 103.227 116.195 103.227C116.84 103.227 117.387 103.168 117.875 101.84L118.129 101.137L114.242 90.3945H116.469L119.145 98.6172H119.262L121.938 90.3945H124.184L119.809 102.406C119.203 104.086 118.109 104.984 116.371 104.984Z" fill="black"/>
<path d="M189.016 91.4688C188.664 89.6523 187.16 88.6367 185.363 88.6367C182.922 88.6367 181.105 90.5117 181.105 93.9297C181.105 97.3672 182.941 99.2227 185.363 99.2227C187.141 99.2227 188.645 98.2266 189.016 96.4297L191.184 96.4492C190.734 99.2422 188.449 101.195 185.344 101.195C181.652 101.195 178.977 98.4414 178.977 93.9297C178.977 89.3984 181.672 86.6641 185.344 86.6641C188.332 86.6641 190.695 88.4219 191.184 91.4688H189.016ZM192.844 98.0117C192.844 95.5898 194.895 94.9648 196.809 94.8281C197.512 94.7793 199.104 94.6914 199.602 94.6719L199.582 93.832C199.582 92.6406 198.859 91.9375 197.434 91.9375C196.203 91.9375 195.461 92.5039 195.246 93.2852H193.176C193.371 91.5273 195.012 90.2578 197.512 90.2578C199.191 90.2578 201.672 90.8828 201.672 93.9492V101H199.641V99.5547H199.562C199.152 100.355 198.176 101.234 196.418 101.234C194.406 101.234 192.844 100.082 192.844 98.0117ZM194.875 98.0312C194.875 99.0469 195.715 99.5742 196.887 99.5742C198.586 99.5742 199.602 98.4414 199.602 97.1719V96.1953L197.102 96.3711C195.734 96.4688 194.875 96.9766 194.875 98.0312ZM204.191 101V90.3945H206.203V92.1328H206.32C206.77 90.9414 207.805 90.2578 209.211 90.2578C210.617 90.2578 211.613 90.9609 212.062 92.1328H212.18C212.688 90.9805 213.82 90.2578 215.363 90.2578C217.277 90.2578 218.645 91.4688 218.645 93.8906V101H216.555V94.0859C216.555 92.6602 215.656 92.0547 214.562 92.0547C213.215 92.0547 212.453 92.9727 212.453 94.2422V101H210.383V93.9688C210.383 92.8164 209.582 92.0547 208.449 92.0547C207.277 92.0547 206.281 93.0312 206.281 94.457V101H204.191ZM225.734 101.215C222.609 101.215 220.695 99.0664 220.695 95.7656C220.695 92.5039 222.648 90.2578 225.598 90.2578C228.02 90.2578 230.305 91.7617 230.305 95.5898V96.332H222.766C222.824 98.3438 224.006 99.4961 225.754 99.4961C226.945 99.4961 227.707 98.9883 228.059 98.3438H230.168C229.699 100.062 228.059 101.215 225.734 101.215ZM222.785 94.7695H228.254C228.254 93.1484 227.219 91.9766 225.617 91.9766C223.947 91.9766 222.863 93.2656 222.785 94.7695ZM234.465 86.8594V101H232.375V86.8594H234.465ZM241.496 101.215C238.488 101.215 236.535 99.0273 236.535 95.7461C236.535 92.4453 238.488 90.2578 241.496 90.2578C244.484 90.2578 246.438 92.4453 246.438 95.7461C246.438 99.0273 244.484 101.215 241.496 101.215ZM241.496 99.4766C243.41 99.4766 244.328 97.7773 244.328 95.7461C244.328 93.7148 243.41 91.9766 241.496 91.9766C239.543 91.9766 238.625 93.7148 238.625 95.7461C238.625 97.7773 239.543 99.4766 241.496 99.4766ZM253.449 90.3945V92.0547H251.281V97.875C251.281 99.0664 251.887 99.2812 252.551 99.3008C252.844 99.3008 253.312 99.2617 253.605 99.2422V101.059C253.312 101.098 252.863 101.137 252.297 101.137C250.656 101.137 249.191 100.238 249.211 98.3047V92.0547H247.648V90.3945H249.211V87.8555H251.281V90.3945H253.449Z" fill="black"/>
<path d="M309.445 101V86.8594H314.621C317.629 86.8594 319.094 88.4805 319.094 90.5703C319.094 92.3281 318.02 93.2266 316.711 93.5586V93.6953C318.117 93.7734 319.641 95.0039 319.641 97.1914C319.641 99.3594 318.156 101 314.855 101H309.445ZM314.66 99.1641C316.691 99.1641 317.512 98.2656 317.512 97.0938C317.512 95.7461 316.438 94.6523 314.738 94.6523H311.594V99.1641H314.66ZM314.445 92.9727C315.871 92.9727 316.984 92.0938 316.984 90.7461C316.984 89.5742 316.184 88.6953 314.484 88.6953H311.594V92.9727H314.445ZM321.945 101V86.8594H326.984C330.266 86.8594 331.887 88.832 331.887 91.4492C331.887 94.0469 330.266 96.0391 326.984 96.0391H324.094V101H321.945ZM324.094 94.2031H326.77C328.859 94.2031 329.719 93.0312 329.719 91.4492C329.719 89.8477 328.859 88.6953 326.77 88.6953H324.094V94.2031ZM334.152 86.8594H336.77L341.242 97.8164H341.418L345.891 86.8594H348.508V101H346.457V90.7852H346.32L342.18 100.98H340.48L336.32 90.7656H336.203V101H334.152V86.8594Z" fill="black"/>
<path d="M409.035 101H404.445V86.8594H409.172C413.332 86.8594 415.832 89.5156 415.832 93.9102C415.832 98.3242 413.332 101 409.035 101ZM406.594 99.125H408.918C412.121 99.125 413.703 97.25 413.703 93.9102C413.703 90.5898 412.121 88.7344 409.035 88.7344H406.594V99.125ZM424.816 96.5859V90.3945H426.887V101H424.855V99.1641H424.738C424.25 100.297 423.156 101.137 421.574 101.137C419.523 101.137 418.078 99.7695 418.078 97.1328V90.3945H420.168V96.8789C420.168 98.3242 421.047 99.2422 422.316 99.2422C423.469 99.2422 424.816 98.4023 424.816 96.5859ZM429.426 101V90.3945H431.438V92.0742H431.555C431.945 90.9414 433 90.2383 434.25 90.2383C434.504 90.2383 434.914 90.2578 435.129 90.2773V92.2695C434.953 92.2305 434.465 92.1523 434.035 92.1523C432.59 92.1523 431.516 93.1484 431.516 94.5352V101H429.426ZM436.086 98.0117C436.086 95.5898 438.137 94.9648 440.051 94.8281C440.754 94.7793 442.346 94.6914 442.844 94.6719L442.824 93.832C442.824 92.6406 442.102 91.9375 440.676 91.9375C439.445 91.9375 438.703 92.5039 438.488 93.2852H436.418C436.613 91.5273 438.254 90.2578 440.754 90.2578C442.434 90.2578 444.914 90.8828 444.914 93.9492V101H442.883V99.5547H442.805C442.395 100.355 441.418 101.234 439.66 101.234C437.648 101.234 436.086 100.082 436.086 98.0117ZM438.117 98.0312C438.117 99.0469 438.957 99.5742 440.129 99.5742C441.828 99.5742 442.844 98.4414 442.844 97.1719V96.1953L440.344 96.3711C438.977 96.4688 438.117 96.9766 438.117 98.0312ZM452.395 90.3945V92.0547H450.227V97.875C450.227 99.0664 450.832 99.2812 451.496 99.3008C451.789 99.3008 452.258 99.2617 452.551 99.2422V101.059C452.258 101.098 451.809 101.137 451.242 101.137C449.602 101.137 448.137 100.238 448.156 98.3047V92.0547H446.594V90.3945H448.156V87.8555H450.227V90.3945H452.395ZM454.426 101V90.3945H456.516V101H454.426ZM455.48 88.7539C454.758 88.7539 454.152 88.207 454.152 87.5234C454.152 86.8398 454.758 86.293 455.48 86.293C456.184 86.293 456.789 86.8398 456.789 87.5234C456.789 88.207 456.184 88.7539 455.48 88.7539ZM463.547 101.215C460.539 101.215 458.586 99.0273 458.586 95.7461C458.586 92.4453 460.539 90.2578 463.547 90.2578C466.535 90.2578 468.488 92.4453 468.488 95.7461C468.488 99.0273 466.535 101.215 463.547 101.215ZM463.547 99.4766C465.461 99.4766 466.379 97.7773 466.379 95.7461C466.379 93.7148 465.461 91.9766 463.547 91.9766C461.594 91.9766 460.676 93.7148 460.676 95.7461C460.676 97.7773 461.594 99.4766 463.547 99.4766ZM472.629 94.7109V101H470.539V90.3945H472.551V92.1328H472.668C473.176 91 474.211 90.2578 475.793 90.2578C477.98 90.2578 479.406 91.625 479.406 94.2617V101H477.336V94.5156C477.336 92.9727 476.496 92.0547 475.09 92.0547C473.664 92.0547 472.629 93.0117 472.629 94.7109Z" fill="black"/>
<path d="M17.5391 9.79688V12.1641H5.67969V9.79688H10.2734V7.64062H13.25V9.79688H17.5391ZM11.7266 12.8672C14.6562 12.8906 16.7656 14.5078 16.7891 16.875C16.7656 19.2656 14.6562 20.8594 11.7266 20.8359C8.77344 20.8594 6.71094 19.2656 6.73438 16.875C6.71094 14.5078 8.77344 12.8906 11.7266 12.8672ZM11.7266 15.0938C10.3672 15.0938 9.5 15.7266 9.52344 16.875C9.5 18.0234 10.3672 18.6328 11.7266 18.6328C13.0625 18.6328 14 18.0234 14 16.875C14 15.7266 13.0625 15.0938 11.7266 15.0938ZM23.6094 7.82812V21.4219H20.6328V19.1719H17.7266V16.7812H20.6328V14.9062H17.7734V12.5156H20.6328V7.82812H23.6094ZM16.3672 21.6797C20.8906 21.6797 23.7266 23.0625 23.7266 25.4297C23.7266 27.75 20.8906 29.1562 16.3672 29.1562C11.8203 29.1562 9.00781 27.75 9.00781 25.4297C9.00781 23.0625 11.8203 21.6797 16.3672 21.6797ZM16.3672 23.9297C13.6484 23.9531 12.1484 24.4219 12.1484 25.4297C12.1484 26.3906 13.6484 26.9062 16.3672 26.9062C19.0391 26.9062 20.5156 26.3906 20.5156 25.4297C20.5156 24.4219 19.0391 23.9531 16.3672 23.9297ZM34.5547 10.8516C34.5312 13.5234 36.0547 16.1016 39.5703 17.1562L38.0703 19.5C35.6445 18.7266 33.9688 17.2148 33.0078 15.2578C32.0469 17.3672 30.3125 19.0195 27.8047 19.8281L26.3047 17.4844C29.8672 16.3359 31.4375 13.5703 31.4375 10.8516V8.8125H34.5547V10.8516ZM44.2344 21.4688V29.1562H41.2344V23.8594H29.5625V21.4688H44.2344ZM44.2344 7.82812V20.5547H41.2344V7.82812H44.2344Z" fill="black"/>
<path d="M23.6094 160.828V173.484H20.6328V168.445H17.3047V166.031H20.6328V160.828H23.6094ZM16.3203 173.953C20.8672 173.977 23.6562 175.477 23.6797 178.078C23.6562 180.656 20.8672 182.18 16.3203 182.18C11.7734 182.18 8.98438 180.656 8.98438 178.078C8.98438 175.477 11.7734 173.977 16.3203 173.953ZM16.3203 176.25C13.4844 176.25 11.9609 176.836 11.9609 178.078C11.9609 179.297 13.4844 179.906 16.3203 179.906C19.1562 179.906 20.7031 179.297 20.7031 178.078C20.7031 176.836 19.1562 176.25 16.3203 176.25ZM17.9375 162.117V164.508H13.6953C13.7656 166.992 15.2656 169.5 18.5938 170.602L17.1172 172.945C14.7617 172.184 13.1445 170.637 12.2188 168.703C11.2695 170.883 9.57031 172.641 7.03906 173.508L5.49219 171.141C8.99609 169.969 10.5664 167.18 10.6484 164.508H6.35938V162.117H17.9375ZM34.4375 165.656C34.4375 169.664 36.0547 173.555 39.6172 175.102L37.7891 177.492C35.4219 176.332 33.8398 174.211 32.9609 171.586C32.0234 174.375 30.3828 176.66 27.9453 177.867L26.0703 175.43C29.7266 173.789 31.3906 169.664 31.4141 165.656V162.469H34.4375V165.656ZM44.375 160.828V182.203H41.4219V169.945H37.2266V167.531H41.4219V160.828H44.375Z" fill="black"/>
<path d="M37.4453 248V233.859H42.4844C45.7656 233.859 47.3867 235.832 47.3867 238.449C47.3867 241.047 45.7656 243.039 42.4844 243.039H39.5938V248H37.4453ZM39.5938 241.203H42.2695C44.3594 241.203 45.2188 240.031 45.2188 238.449C45.2188 236.848 44.3594 235.695 42.2695 235.695H39.5938V241.203ZM53.832 248.215C50.8242 248.215 48.8711 246.027 48.8711 242.746C48.8711 239.445 50.8242 237.258 53.832 237.258C56.8203 237.258 58.7734 239.445 58.7734 242.746C58.7734 246.027 56.8203 248.215 53.832 248.215ZM53.832 246.477C55.7461 246.477 56.6641 244.777 56.6641 242.746C56.6641 240.715 55.7461 238.977 53.832 238.977C51.8789 238.977 50.9609 240.715 50.9609 242.746C50.9609 244.777 51.8789 246.477 53.832 246.477ZM60.8242 251.984V237.395H62.8555V239.113H63.0312C63.4023 238.449 64.125 237.258 66.0781 237.258C68.6367 237.258 70.5312 239.27 70.5312 242.727C70.5312 246.145 68.6758 248.215 66.0977 248.215C64.1641 248.215 63.4023 247.043 63.0312 246.34H62.9141V251.984H60.8242ZM62.875 242.688C62.875 244.914 63.8516 246.438 65.6289 246.438C67.4648 246.438 68.4219 244.816 68.4219 242.688C68.4219 240.598 67.4844 239.035 65.6289 239.035C63.832 239.035 62.875 240.48 62.875 242.688ZM79.3398 243.586V237.395H81.4102V248H79.3789V246.164H79.2617C78.7734 247.297 77.6797 248.137 76.0977 248.137C74.0469 248.137 72.6016 246.77 72.6016 244.133V237.395H74.6914V243.879C74.6914 245.324 75.5703 246.242 76.8398 246.242C77.9922 246.242 79.3398 245.402 79.3398 243.586ZM86.0391 233.859V248H83.9492V233.859H86.0391ZM88.0898 245.012C88.0898 242.59 90.1406 241.965 92.0547 241.828C92.7578 241.779 94.3496 241.691 94.8477 241.672L94.8281 240.832C94.8281 239.641 94.1055 238.938 92.6797 238.938C91.4492 238.938 90.707 239.504 90.4922 240.285H88.4219C88.6172 238.527 90.2578 237.258 92.7578 237.258C94.4375 237.258 96.918 237.883 96.918 240.949V248H94.8867V246.555H94.8086C94.3984 247.355 93.4219 248.234 91.6641 248.234C89.6523 248.234 88.0898 247.082 88.0898 245.012ZM90.1211 245.031C90.1211 246.047 90.9609 246.574 92.1328 246.574C93.832 246.574 94.8477 245.441 94.8477 244.172V243.195L92.3477 243.371C90.9805 243.469 90.1211 243.977 90.1211 245.031ZM99.4375 248V237.395H101.449V239.074H101.566C101.957 237.941 103.012 237.238 104.262 237.238C104.516 237.238 104.926 237.258 105.141 237.277V239.27C104.965 239.23 104.477 239.152 104.047 239.152C102.602 239.152 101.527 240.148 101.527 241.535V248H99.4375ZM106.703 248V237.395H108.793V248H106.703ZM107.758 235.754C107.035 235.754 106.43 235.207 106.43 234.523C106.43 233.84 107.035 233.293 107.758 233.293C108.461 233.293 109.066 233.84 109.066 234.523C109.066 235.207 108.461 235.754 107.758 235.754ZM116.293 237.395V239.055H114.125V244.875C114.125 246.066 114.73 246.281 115.395 246.301C115.688 246.301 116.156 246.262 116.449 246.242V248.059C116.156 248.098 115.707 248.137 115.141 248.137C113.5 248.137 112.035 247.238 112.055 245.305V239.055H110.492V237.395H112.055V234.855H114.125V237.395H116.293ZM119.613 251.984C119.184 251.984 118.773 251.965 118.5 251.926V250.188C118.734 250.207 119.145 250.227 119.438 250.227C120.082 250.227 120.629 250.168 121.117 248.84L121.371 248.137L117.484 237.395H119.711L122.387 245.617H122.504L125.18 237.395H127.426L123.051 249.406C122.445 251.086 121.352 251.984 119.613 251.984Z" fill="black"/>
<path d="M204.112 248V233.859H212.979V235.715H206.26V239.992H212.51V241.828H206.26V246.145H213.057V248H204.112ZM217.53 241.711V248H215.44V237.395H217.452V239.133H217.569C218.077 238 219.112 237.258 220.694 237.258C222.881 237.258 224.307 238.625 224.307 241.262V248H222.237V241.516C222.237 239.973 221.397 239.055 219.991 239.055C218.565 239.055 217.53 240.012 217.53 241.711ZM231.417 248.215C228.292 248.215 226.377 246.066 226.377 242.766C226.377 239.504 228.331 237.258 231.28 237.258C233.702 237.258 235.987 238.762 235.987 242.59V243.332H228.448C228.506 245.344 229.688 246.496 231.436 246.496C232.627 246.496 233.389 245.988 233.741 245.344H235.85C235.381 247.062 233.741 248.215 231.417 248.215ZM228.467 241.77H233.936C233.936 240.148 232.901 238.977 231.299 238.977C229.629 238.977 228.545 240.266 228.467 241.77ZM238.057 248V237.395H240.069V239.074H240.186C240.577 237.941 241.631 237.238 242.881 237.238C243.135 237.238 243.545 237.258 243.76 237.277V239.27C243.584 239.23 243.096 239.152 242.667 239.152C241.221 239.152 240.147 240.148 240.147 241.535V248H238.057ZM249.424 252.199C246.749 252.199 244.991 251.008 244.795 249.035H246.924C247.12 250.031 248.057 250.52 249.444 250.52C251.104 250.52 252.159 249.816 252.159 248.156V246.066H252.022C251.651 246.75 250.889 247.844 248.936 247.844C246.436 247.844 244.502 245.969 244.502 242.59C244.502 239.211 246.397 237.258 248.956 237.258C250.928 237.258 251.651 238.449 252.042 239.113H252.178V237.395H254.209V248.234C254.209 250.949 252.159 252.199 249.424 252.199ZM249.405 246.125C251.182 246.125 252.178 244.816 252.178 242.629C252.178 240.48 251.202 239.035 249.405 239.035C247.549 239.035 246.631 240.598 246.631 242.629C246.631 244.699 247.588 246.125 249.405 246.125ZM258.038 251.984C257.608 251.984 257.198 251.965 256.924 251.926V250.188C257.159 250.207 257.569 250.227 257.862 250.227C258.506 250.227 259.053 250.168 259.542 248.84L259.795 248.137L255.909 237.395H258.135L260.811 245.617H260.928L263.604 237.395H265.85L261.475 249.406C260.87 251.086 259.776 251.984 258.038 251.984Z" fill="black"/>
<path d="M375.369 248H370.779V233.859H375.505C379.666 233.859 382.166 236.516 382.166 240.91C382.166 245.324 379.666 248 375.369 248ZM372.927 246.125H375.251C378.455 246.125 380.037 244.25 380.037 240.91C380.037 237.59 378.455 235.734 375.369 235.734H372.927V246.125ZM383.923 245.012C383.923 242.59 385.974 241.965 387.888 241.828C388.591 241.779 390.183 241.691 390.681 241.672L390.662 240.832C390.662 239.641 389.939 238.938 388.513 238.938C387.283 238.938 386.541 239.504 386.326 240.285H384.255C384.451 238.527 386.091 237.258 388.591 237.258C390.271 237.258 392.751 237.883 392.751 240.949V248H390.72V246.555H390.642C390.232 247.355 389.255 248.234 387.498 248.234C385.486 248.234 383.923 247.082 383.923 245.012ZM385.955 245.031C385.955 246.047 386.794 246.574 387.966 246.574C389.666 246.574 390.681 245.441 390.681 244.172V243.195L388.181 243.371C386.814 243.469 385.955 243.977 385.955 245.031ZM397.361 241.711V248H395.271V237.395H397.283V239.133H397.4C397.908 238 398.943 237.258 400.525 237.258C402.712 237.258 404.138 238.625 404.138 241.262V248H402.068V241.516C402.068 239.973 401.228 239.055 399.822 239.055C398.396 239.055 397.361 240.012 397.361 241.711ZM411.169 248.215C408.083 248.215 406.208 245.93 406.208 242.746C406.208 239.504 408.142 237.258 411.13 237.258C413.552 237.258 415.31 238.684 415.525 240.832H413.494C413.279 239.836 412.478 238.996 411.169 238.996C409.451 238.996 408.298 240.422 408.298 242.688C408.298 245.012 409.431 246.438 411.169 246.438C412.341 246.438 413.24 245.793 413.494 244.641H415.525C415.291 246.691 413.669 248.215 411.169 248.215ZM422.068 248.215C418.943 248.215 417.029 246.066 417.029 242.766C417.029 239.504 418.982 237.258 421.931 237.258C424.353 237.258 426.638 238.762 426.638 242.59V243.332H419.099C419.158 245.344 420.339 246.496 422.087 246.496C423.279 246.496 424.041 245.988 424.392 245.344H426.501C426.033 247.062 424.392 248.215 422.068 248.215ZM419.119 241.77H424.587C424.587 240.148 423.552 238.977 421.951 238.977C420.281 238.977 419.197 240.266 419.119 241.77ZM428.22 245.012C428.22 242.59 430.271 241.965 432.185 241.828C432.888 241.779 434.48 241.691 434.978 241.672L434.958 240.832C434.958 239.641 434.236 238.938 432.81 238.938C431.58 238.938 430.837 239.504 430.623 240.285H428.552C428.748 238.527 430.388 237.258 432.888 237.258C434.568 237.258 437.048 237.883 437.048 240.949V248H435.017V246.555H434.939C434.529 247.355 433.552 248.234 431.794 248.234C429.783 248.234 428.22 247.082 428.22 245.012ZM430.251 245.031C430.251 246.047 431.091 246.574 432.263 246.574C433.962 246.574 434.978 245.441 434.978 244.172V243.195L432.478 243.371C431.111 243.469 430.251 243.977 430.251 245.031ZM439.744 248V233.859H441.814V239.113H441.931C442.322 238.449 443.025 237.258 444.978 237.258C447.537 237.258 449.451 239.27 449.451 242.727C449.451 246.145 447.576 248.215 444.998 248.215C443.064 248.215 442.322 247.043 441.931 246.34H441.775V248H439.744ZM441.775 242.688C441.775 244.914 442.771 246.438 444.529 246.438C446.365 246.438 447.322 244.816 447.322 242.688C447.322 240.598 446.384 239.035 444.529 239.035C442.751 239.035 441.775 240.48 441.775 242.688ZM451.521 248V237.395H453.611V248H451.521ZM452.576 235.754C451.853 235.754 451.248 235.207 451.248 234.523C451.248 233.84 451.853 233.293 452.576 233.293C453.279 233.293 453.884 233.84 453.884 234.523C453.884 235.207 453.279 235.754 452.576 235.754ZM458.24 233.859V248H456.15V233.859H458.24ZM460.779 248V237.395H462.869V248H460.779ZM461.833 235.754C461.111 235.754 460.505 235.207 460.505 234.523C460.505 233.84 461.111 233.293 461.833 233.293C462.537 233.293 463.142 233.84 463.142 234.523C463.142 235.207 462.537 235.754 461.833 235.754ZM470.369 237.395V239.055H468.201V244.875C468.201 246.066 468.806 246.281 469.47 246.301C469.763 246.301 470.232 246.262 470.525 246.242V248.059C470.232 248.098 469.783 248.137 469.216 248.137C467.576 248.137 466.111 247.238 466.13 245.305V239.055H464.568V237.395H466.13V234.855H468.201V237.395H470.369ZM473.689 251.984C473.259 251.984 472.849 251.965 472.576 251.926V250.188C472.81 250.207 473.22 250.227 473.513 250.227C474.158 250.227 474.705 250.168 475.193 248.84L475.447 248.137L471.56 237.395H473.787L476.462 245.617H476.58L479.255 237.395H481.501L477.126 249.406C476.521 251.086 475.427 251.984 473.689 251.984Z" fill="black"/>
<path d="M37.4453 313.332V299.191H39.5938V305.324H46.625V299.191H48.7734V313.332H46.625V307.16H39.5938V313.332H37.4453ZM51 310.344C51 307.922 53.0508 307.297 54.9648 307.16C55.668 307.111 57.2598 307.023 57.7578 307.004L57.7383 306.164C57.7383 304.973 57.0156 304.27 55.5898 304.27C54.3594 304.27 53.6172 304.836 53.4023 305.617H51.332C51.5273 303.859 53.168 302.59 55.668 302.59C57.3477 302.59 59.8281 303.215 59.8281 306.281V313.332H57.7969V311.887H57.7188C57.3086 312.688 56.332 313.566 54.5742 313.566C52.5625 313.566 51 312.414 51 310.344ZM53.0312 310.363C53.0312 311.379 53.8711 311.906 55.043 311.906C56.7422 311.906 57.7578 310.773 57.7578 309.504V308.527L55.2578 308.703C53.8906 308.801 53.0312 309.309 53.0312 310.363ZM62.3477 317.316V302.727H64.3789V304.445H64.5547C64.9258 303.781 65.6484 302.59 67.6016 302.59C70.1602 302.59 72.0547 304.602 72.0547 308.059C72.0547 311.477 70.1992 313.547 67.6211 313.547C65.6875 313.547 64.9258 312.375 64.5547 311.672H64.4375V317.316H62.3477ZM64.3984 308.02C64.3984 310.246 65.375 311.77 67.1523 311.77C68.9883 311.77 69.9453 310.148 69.9453 308.02C69.9453 305.93 69.0078 304.367 67.1523 304.367C65.3555 304.367 64.3984 305.812 64.3984 308.02ZM74.125 317.316V302.727H76.1562V304.445H76.332C76.7031 303.781 77.4258 302.59 79.3789 302.59C81.9375 302.59 83.832 304.602 83.832 308.059C83.832 311.477 81.9766 313.547 79.3984 313.547C77.4648 313.547 76.7031 312.375 76.332 311.672H76.2148V317.316H74.125ZM76.1758 308.02C76.1758 310.246 77.1523 311.77 78.9297 311.77C80.7656 311.77 81.7227 310.148 81.7227 308.02C81.7227 305.93 80.7852 304.367 78.9297 304.367C77.1328 304.367 76.1758 305.812 76.1758 308.02ZM85.9023 313.332V302.727H87.9922V313.332H85.9023ZM86.957 301.086C86.2344 301.086 85.6289 300.539 85.6289 299.855C85.6289 299.172 86.2344 298.625 86.957 298.625C87.6602 298.625 88.2656 299.172 88.2656 299.855C88.2656 300.539 87.6602 301.086 86.957 301.086ZM92.6211 307.043V313.332H90.5312V302.727H92.543V304.465H92.6602C93.168 303.332 94.2031 302.59 95.7852 302.59C97.9727 302.59 99.3984 303.957 99.3984 306.594V313.332H97.3281V306.848C97.3281 305.305 96.4883 304.387 95.082 304.387C93.6562 304.387 92.6211 305.344 92.6211 307.043ZM106.508 313.547C103.383 313.547 101.469 311.398 101.469 308.098C101.469 304.836 103.422 302.59 106.371 302.59C108.793 302.59 111.078 304.094 111.078 307.922V308.664H103.539C103.598 310.676 104.779 311.828 106.527 311.828C107.719 311.828 108.48 311.32 108.832 310.676H110.941C110.473 312.395 108.832 313.547 106.508 313.547ZM103.559 307.102H109.027C109.027 305.48 107.992 304.309 106.391 304.309C104.721 304.309 103.637 305.598 103.559 307.102ZM119.105 305.617C118.91 304.777 118.246 304.23 117.094 304.23C115.902 304.23 115.043 304.855 115.062 305.656C115.043 306.281 115.551 306.73 116.723 307.004L118.402 307.395C120.355 307.824 121.293 308.762 121.312 310.266C121.293 312.18 119.691 313.547 116.977 313.547C114.438 313.547 112.914 312.414 112.66 310.441H114.789C114.965 311.398 115.707 311.867 116.957 311.867C118.305 311.867 119.164 311.32 119.184 310.422C119.164 309.738 118.656 309.289 117.543 309.035L115.883 308.684C113.969 308.254 112.973 307.238 112.973 305.773C112.973 303.879 114.613 302.59 117.074 302.59C119.438 302.59 120.902 303.801 121.117 305.617H119.105ZM129.301 305.617C129.105 304.777 128.441 304.23 127.289 304.23C126.098 304.23 125.238 304.855 125.258 305.656C125.238 306.281 125.746 306.73 126.918 307.004L128.598 307.395C130.551 307.824 131.488 308.762 131.508 310.266C131.488 312.18 129.887 313.547 127.172 313.547C124.633 313.547 123.109 312.414 122.855 310.441H124.984C125.16 311.398 125.902 311.867 127.152 311.867C128.5 311.867 129.359 311.32 129.379 310.422C129.359 309.738 128.852 309.289 127.738 309.035L126.078 308.684C124.164 308.254 123.168 307.238 123.168 305.773C123.168 303.879 124.809 302.59 127.27 302.59C129.633 302.59 131.098 303.801 131.312 305.617H129.301Z" fill="black"/>
<path d="M205.323 313.332H203.038L208.116 299.191H210.596L215.694 313.332H213.409L212.12 309.602H206.612L205.323 313.332ZM207.237 307.805H211.495L209.405 301.77H209.307L207.237 307.805ZM221.631 313.547C218.545 313.547 216.67 311.262 216.67 308.078C216.67 304.836 218.604 302.59 221.592 302.59C224.014 302.59 225.772 304.016 225.987 306.164H223.956C223.741 305.168 222.94 304.328 221.631 304.328C219.913 304.328 218.76 305.754 218.76 308.02C218.76 310.344 219.893 311.77 221.631 311.77C222.803 311.77 223.702 311.125 223.956 309.973H225.987C225.752 312.023 224.131 313.547 221.631 313.547ZM232.452 313.547C229.444 313.547 227.491 311.359 227.491 308.078C227.491 304.777 229.444 302.59 232.452 302.59C235.44 302.59 237.393 304.777 237.393 308.078C237.393 311.359 235.44 313.547 232.452 313.547ZM232.452 311.809C234.366 311.809 235.284 310.109 235.284 308.078C235.284 306.047 234.366 304.309 232.452 304.309C230.499 304.309 229.581 306.047 229.581 308.078C229.581 310.109 230.499 311.809 232.452 311.809ZM246.182 308.918V302.727H248.252V313.332H246.221V311.496H246.104C245.616 312.629 244.522 313.469 242.94 313.469C240.889 313.469 239.444 312.102 239.444 309.465V302.727H241.534V309.211C241.534 310.656 242.413 311.574 243.682 311.574C244.834 311.574 246.182 310.734 246.182 308.918ZM256.749 305.617C256.553 304.777 255.889 304.23 254.737 304.23C253.545 304.23 252.686 304.855 252.706 305.656C252.686 306.281 253.194 306.73 254.366 307.004L256.045 307.395C257.999 307.824 258.936 308.762 258.956 310.266C258.936 312.18 257.334 313.547 254.62 313.547C252.081 313.547 250.557 312.414 250.303 310.441H252.432C252.608 311.398 253.35 311.867 254.6 311.867C255.948 311.867 256.807 311.32 256.827 310.422C256.807 309.738 256.299 309.289 255.186 309.035L253.526 308.684C251.612 308.254 250.616 307.238 250.616 305.773C250.616 303.879 252.256 302.59 254.717 302.59C257.081 302.59 258.545 303.801 258.76 305.617H256.749ZM265.948 302.727V304.387H263.78V310.207C263.78 311.398 264.385 311.613 265.049 311.633C265.342 311.633 265.811 311.594 266.104 311.574V313.391C265.811 313.43 265.362 313.469 264.795 313.469C263.155 313.469 261.69 312.57 261.709 310.637V304.387H260.147V302.727H261.709V300.188H263.78V302.727H265.948ZM267.979 313.332V302.727H270.069V313.332H267.979ZM269.034 301.086C268.311 301.086 267.706 300.539 267.706 299.855C267.706 299.172 268.311 298.625 269.034 298.625C269.737 298.625 270.342 299.172 270.342 299.855C270.342 300.539 269.737 301.086 269.034 301.086ZM277.1 313.547C274.014 313.547 272.139 311.262 272.139 308.078C272.139 304.836 274.073 302.59 277.061 302.59C279.483 302.59 281.241 304.016 281.456 306.164H279.424C279.209 305.168 278.409 304.328 277.1 304.328C275.381 304.328 274.229 305.754 274.229 308.02C274.229 310.344 275.362 311.77 277.1 311.77C278.272 311.77 279.17 311.125 279.424 309.973H281.456C281.221 312.023 279.6 313.547 277.1 313.547ZM285.518 307.043V313.332H283.428V302.727H285.44V304.465H285.557C286.065 303.332 287.1 302.59 288.682 302.59C290.87 302.59 292.295 303.957 292.295 306.594V313.332H290.225V306.848C290.225 305.305 289.385 304.387 287.979 304.387C286.553 304.387 285.518 305.344 285.518 307.043ZM299.405 313.547C296.28 313.547 294.366 311.398 294.366 308.098C294.366 304.836 296.319 302.59 299.268 302.59C301.69 302.59 303.975 304.094 303.975 307.922V308.664H296.436C296.495 310.676 297.676 311.828 299.424 311.828C300.616 311.828 301.377 311.32 301.729 310.676H303.838C303.37 312.395 301.729 313.547 299.405 313.547ZM296.456 307.102H301.924C301.924 305.48 300.889 304.309 299.288 304.309C297.618 304.309 296.534 305.598 296.456 307.102ZM312.002 305.617C311.807 304.777 311.143 304.23 309.991 304.23C308.799 304.23 307.94 304.855 307.959 305.656C307.94 306.281 308.448 306.73 309.62 307.004L311.299 307.395C313.252 307.824 314.19 308.762 314.209 310.266C314.19 312.18 312.588 313.547 309.874 313.547C307.334 313.547 305.811 312.414 305.557 310.441H307.686C307.862 311.398 308.604 311.867 309.854 311.867C311.202 311.867 312.061 311.32 312.081 310.422C312.061 309.738 311.553 309.289 310.44 309.035L308.78 308.684C306.866 308.254 305.87 307.238 305.87 305.773C305.87 303.879 307.51 302.59 309.971 302.59C312.334 302.59 313.799 303.801 314.014 305.617H312.002ZM322.198 305.617C322.002 304.777 321.338 304.23 320.186 304.23C318.995 304.23 318.135 304.855 318.155 305.656C318.135 306.281 318.643 306.73 319.815 307.004L321.495 307.395C323.448 307.824 324.385 308.762 324.405 310.266C324.385 312.18 322.784 313.547 320.069 313.547C317.53 313.547 316.006 312.414 315.752 310.441H317.881C318.057 311.398 318.799 311.867 320.049 311.867C321.397 311.867 322.256 311.32 322.276 310.422C322.256 309.738 321.749 309.289 320.635 309.035L318.975 308.684C317.061 308.254 316.065 307.238 316.065 305.773C316.065 303.879 317.706 302.59 320.167 302.59C322.53 302.59 323.995 303.801 324.209 305.617H322.198Z" fill="black"/>
<path d="M372.927 299.191V313.332H370.779V299.191H372.927ZM377.712 307.043V313.332H375.623V302.727H377.634V304.465H377.751C378.259 303.332 379.294 302.59 380.876 302.59C383.064 302.59 384.49 303.957 384.49 306.594V313.332H382.419V306.848C382.419 305.305 381.58 304.387 380.173 304.387C378.748 304.387 377.712 305.344 377.712 307.043ZM392.986 305.617C392.791 304.777 392.126 304.23 390.974 304.23C389.783 304.23 388.923 304.855 388.943 305.656C388.923 306.281 389.431 306.73 390.603 307.004L392.283 307.395C394.236 307.824 395.173 308.762 395.193 310.266C395.173 312.18 393.572 313.547 390.857 313.547C388.318 313.547 386.794 312.414 386.541 310.441H388.669C388.845 311.398 389.587 311.867 390.837 311.867C392.185 311.867 393.044 311.32 393.064 310.422C393.044 309.738 392.537 309.289 391.423 309.035L389.763 308.684C387.849 308.254 386.853 307.238 386.853 305.773C386.853 303.879 388.494 302.59 390.955 302.59C393.318 302.59 394.783 303.801 394.998 305.617H392.986ZM402.185 302.727V304.387H400.017V310.207C400.017 311.398 400.623 311.613 401.287 311.633C401.58 311.633 402.048 311.594 402.341 311.574V313.391C402.048 313.43 401.599 313.469 401.033 313.469C399.392 313.469 397.927 312.57 397.947 310.637V304.387H396.384V302.727H397.947V300.188H400.017V302.727H402.185ZM404.216 313.332V302.727H406.228V304.406H406.345C406.736 303.273 407.791 302.57 409.041 302.57C409.294 302.57 409.705 302.59 409.919 302.609V304.602C409.744 304.562 409.255 304.484 408.826 304.484C407.38 304.484 406.306 305.48 406.306 306.867V313.332H404.216ZM418.22 308.918V302.727H420.291V313.332H418.259V311.496H418.142C417.654 312.629 416.56 313.469 414.978 313.469C412.927 313.469 411.482 312.102 411.482 309.465V302.727H413.572V309.211C413.572 310.656 414.451 311.574 415.72 311.574C416.873 311.574 418.22 310.734 418.22 308.918ZM424.919 307.043V313.332H422.83V302.727H424.841V304.465H424.958C425.466 303.332 426.501 302.59 428.083 302.59C430.271 302.59 431.697 303.957 431.697 306.594V313.332H429.626V306.848C429.626 305.305 428.787 304.387 427.38 304.387C425.955 304.387 424.919 305.344 424.919 307.043ZM434.236 313.332V302.727H436.248V304.465H436.365C436.814 303.273 437.849 302.59 439.255 302.59C440.662 302.59 441.658 303.293 442.107 304.465H442.224C442.732 303.312 443.865 302.59 445.408 302.59C447.322 302.59 448.689 303.801 448.689 306.223V313.332H446.599V306.418C446.599 304.992 445.701 304.387 444.607 304.387C443.259 304.387 442.498 305.305 442.498 306.574V313.332H440.427V306.301C440.427 305.148 439.626 304.387 438.494 304.387C437.322 304.387 436.326 305.363 436.326 306.789V313.332H434.236ZM455.779 313.547C452.654 313.547 450.74 311.398 450.74 308.098C450.74 304.836 452.693 302.59 455.642 302.59C458.064 302.59 460.349 304.094 460.349 307.922V308.664H452.81C452.869 310.676 454.05 311.828 455.798 311.828C456.99 311.828 457.751 311.32 458.103 310.676H460.212C459.744 312.395 458.103 313.547 455.779 313.547ZM452.83 307.102H458.298C458.298 305.48 457.263 304.309 455.662 304.309C453.992 304.309 452.908 305.598 452.83 307.102ZM464.509 307.043V313.332H462.419V302.727H464.431V304.465H464.548C465.056 303.332 466.091 302.59 467.673 302.59C469.861 302.59 471.287 303.957 471.287 306.594V313.332H469.216V306.848C469.216 305.305 468.376 304.387 466.97 304.387C465.544 304.387 464.509 305.344 464.509 307.043ZM478.787 302.727V304.387H476.619V310.207C476.619 311.398 477.224 311.613 477.888 311.633C478.181 311.633 478.65 311.594 478.943 311.574V313.391C478.65 313.43 478.201 313.469 477.634 313.469C475.994 313.469 474.529 312.57 474.548 310.637V304.387H472.986V302.727H474.548V300.188H476.619V302.727H478.787ZM480.33 310.344C480.33 307.922 482.38 307.297 484.294 307.16C484.998 307.111 486.589 307.023 487.087 307.004L487.068 306.164C487.068 304.973 486.345 304.27 484.919 304.27C483.689 304.27 482.947 304.836 482.732 305.617H480.662C480.857 303.859 482.498 302.59 484.998 302.59C486.677 302.59 489.158 303.215 489.158 306.281V313.332H487.126V311.887H487.048C486.638 312.688 485.662 313.566 483.904 313.566C481.892 313.566 480.33 312.414 480.33 310.344ZM482.361 310.363C482.361 311.379 483.201 311.906 484.373 311.906C486.072 311.906 487.087 310.773 487.087 309.504V308.527L484.587 308.703C483.22 308.801 482.361 309.309 482.361 310.363ZM493.767 299.191V313.332H491.677V299.191H493.767ZM498.396 307.043V313.332H496.306V302.727H498.318V304.465H498.435C498.943 303.332 499.978 302.59 501.56 302.59C503.748 302.59 505.173 303.957 505.173 306.594V313.332H503.103V306.848C503.103 305.305 502.263 304.387 500.857 304.387C499.431 304.387 498.396 305.344 498.396 307.043ZM512.283 313.547C509.158 313.547 507.244 311.398 507.244 308.098C507.244 304.836 509.197 302.59 512.146 302.59C514.568 302.59 516.853 304.094 516.853 307.922V308.664H509.314C509.373 310.676 510.554 311.828 512.302 311.828C513.494 311.828 514.255 311.32 514.607 310.676H516.716C516.248 312.395 514.607 313.547 512.283 313.547ZM509.333 307.102H514.802C514.802 305.48 513.767 304.309 512.166 304.309C510.496 304.309 509.412 305.598 509.333 307.102ZM524.88 305.617C524.685 304.777 524.021 304.23 522.869 304.23C521.677 304.23 520.818 304.855 520.837 305.656C520.818 306.281 521.326 306.73 522.498 307.004L524.177 307.395C526.13 307.824 527.068 308.762 527.087 310.266C527.068 312.18 525.466 313.547 522.751 313.547C520.212 313.547 518.689 312.414 518.435 310.441H520.564C520.74 311.398 521.482 311.867 522.732 311.867C524.08 311.867 524.939 311.32 524.958 310.422C524.939 309.738 524.431 309.289 523.318 309.035L521.658 308.684C519.744 308.254 518.748 307.238 518.748 305.773C518.748 303.879 520.388 302.59 522.849 302.59C525.212 302.59 526.677 303.801 526.892 305.617H524.88ZM535.076 305.617C534.88 304.777 534.216 304.23 533.064 304.23C531.873 304.23 531.013 304.855 531.033 305.656C531.013 306.281 531.521 306.73 532.693 307.004L534.373 307.395C536.326 307.824 537.263 308.762 537.283 310.266C537.263 312.18 535.662 313.547 532.947 313.547C530.408 313.547 528.884 312.414 528.63 310.441H530.759C530.935 311.398 531.677 311.867 532.927 311.867C534.275 311.867 535.134 311.32 535.154 310.422C535.134 309.738 534.626 309.289 533.513 309.035L531.853 308.684C529.939 308.254 528.943 307.238 528.943 305.773C528.943 303.879 530.583 302.59 533.044 302.59C535.408 302.59 536.873 303.801 537.087 305.617H535.076Z" fill="black"/>
<path d="M37.4453 378.668V364.527H39.5938V376.812H45.9805V378.668H37.4453ZM48.0117 378.668V368.062H50.1016V378.668H48.0117ZM49.0664 366.422C48.3438 366.422 47.7383 365.875 47.7383 365.191C47.7383 364.508 48.3438 363.961 49.0664 363.961C49.7695 363.961 50.375 364.508 50.375 365.191C50.375 365.875 49.7695 366.422 49.0664 366.422ZM61.7422 368.062L57.8945 378.668H55.6484L51.8008 368.062H54.0469L56.7227 376.207H56.8203L59.4961 368.062H61.7422ZM67.6406 378.883C64.5156 378.883 62.6016 376.734 62.6016 373.434C62.6016 370.172 64.5547 367.926 67.5039 367.926C69.9258 367.926 72.2109 369.43 72.2109 373.258V374H64.6719C64.7305 376.012 65.9121 377.164 67.6602 377.164C68.8516 377.164 69.6133 376.656 69.9648 376.012H72.0742C71.6055 377.73 69.9648 378.883 67.6406 378.883ZM64.6914 372.438H70.1602C70.1602 370.816 69.125 369.645 67.5234 369.645C65.8535 369.645 64.7695 370.934 64.6914 372.438ZM76.3711 372.379V378.668H74.2812V368.062H76.293V369.801H76.4102C76.918 368.668 77.9531 367.926 79.5352 367.926C81.7227 367.926 83.1484 369.293 83.1484 371.93V378.668H81.0781V372.184C81.0781 370.641 80.2383 369.723 78.832 369.723C77.4062 369.723 76.3711 370.68 76.3711 372.379ZM90.2578 378.883C87.1328 378.883 85.2188 376.734 85.2188 373.434C85.2188 370.172 87.1719 367.926 90.1211 367.926C92.543 367.926 94.8281 369.43 94.8281 373.258V374H87.2891C87.3477 376.012 88.5293 377.164 90.2773 377.164C91.4688 377.164 92.2305 376.656 92.582 376.012H94.6914C94.2227 377.73 92.582 378.883 90.2578 378.883ZM87.3086 372.438H92.7773C92.7773 370.816 91.7422 369.645 90.1406 369.645C88.4707 369.645 87.3867 370.934 87.3086 372.438ZM102.855 370.953C102.66 370.113 101.996 369.566 100.844 369.566C99.6523 369.566 98.793 370.191 98.8125 370.992C98.793 371.617 99.3008 372.066 100.473 372.34L102.152 372.73C104.105 373.16 105.043 374.098 105.062 375.602C105.043 377.516 103.441 378.883 100.727 378.883C98.1875 378.883 96.6641 377.75 96.4102 375.777H98.5391C98.7148 376.734 99.457 377.203 100.707 377.203C102.055 377.203 102.914 376.656 102.934 375.758C102.914 375.074 102.406 374.625 101.293 374.371L99.6328 374.02C97.7188 373.59 96.7227 372.574 96.7227 371.109C96.7227 369.215 98.3633 367.926 100.824 367.926C103.188 367.926 104.652 369.137 104.867 370.953H102.855ZM113.051 370.953C112.855 370.113 112.191 369.566 111.039 369.566C109.848 369.566 108.988 370.191 109.008 370.992C108.988 371.617 109.496 372.066 110.668 372.34L112.348 372.73C114.301 373.16 115.238 374.098 115.258 375.602C115.238 377.516 113.637 378.883 110.922 378.883C108.383 378.883 106.859 377.75 106.605 375.777H108.734C108.91 376.734 109.652 377.203 110.902 377.203C112.25 377.203 113.109 376.656 113.129 375.758C113.109 375.074 112.602 374.625 111.488 374.371L109.828 374.02C107.914 373.59 106.918 372.574 106.918 371.109C106.918 369.215 108.559 367.926 111.02 367.926C113.383 367.926 114.848 369.137 115.062 370.953H113.051Z" fill="black"/>
<path d="M211.807 368.258C211.67 366.949 210.518 366.188 208.897 366.188C207.159 366.188 206.065 367.066 206.065 368.277C206.065 369.625 207.53 370.133 208.643 370.406L210.01 370.777C211.827 371.207 214.073 372.203 214.092 374.762C214.073 377.145 212.178 378.902 208.838 378.902C205.674 378.902 203.682 377.32 203.545 374.742H205.694C205.831 376.285 207.178 377.027 208.838 377.027C210.635 377.027 211.944 376.109 211.963 374.723C211.944 373.492 210.792 372.984 209.288 372.594L207.608 372.145C205.342 371.52 203.917 370.367 203.917 368.395C203.917 365.953 206.104 364.332 208.956 364.332C211.827 364.332 213.838 365.973 213.897 368.258H211.807ZM216.221 382.652V368.062H218.252V369.781H218.428C218.799 369.117 219.522 367.926 221.475 367.926C224.034 367.926 225.928 369.938 225.928 373.395C225.928 376.812 224.073 378.883 221.495 378.883C219.561 378.883 218.799 377.711 218.428 377.008H218.311V382.652H216.221ZM218.272 373.355C218.272 375.582 219.249 377.105 221.026 377.105C222.862 377.105 223.819 375.484 223.819 373.355C223.819 371.266 222.881 369.703 221.026 369.703C219.229 369.703 218.272 371.148 218.272 373.355ZM232.569 378.883C229.444 378.883 227.53 376.734 227.53 373.434C227.53 370.172 229.483 367.926 232.432 367.926C234.854 367.926 237.139 369.43 237.139 373.258V374H229.6C229.659 376.012 230.84 377.164 232.588 377.164C233.78 377.164 234.542 376.656 234.893 376.012H237.002C236.534 377.73 234.893 378.883 232.569 378.883ZM229.62 372.438H235.088C235.088 370.816 234.053 369.645 232.452 369.645C230.782 369.645 229.698 370.934 229.62 372.438ZM243.78 378.883C240.655 378.883 238.741 376.734 238.741 373.434C238.741 370.172 240.694 367.926 243.643 367.926C246.065 367.926 248.35 369.43 248.35 373.258V374H240.811C240.87 376.012 242.051 377.164 243.799 377.164C244.991 377.164 245.752 376.656 246.104 376.012H248.213C247.745 377.73 246.104 378.883 243.78 378.883ZM240.831 372.438H246.299C246.299 370.816 245.264 369.645 243.663 369.645C241.993 369.645 240.909 370.934 240.831 372.438ZM254.913 378.883C251.827 378.883 249.952 376.598 249.952 373.414C249.952 370.172 251.885 367.926 254.874 367.926C257.295 367.926 259.053 369.352 259.268 371.5H257.237C257.022 370.504 256.221 369.664 254.913 369.664C253.194 369.664 252.042 371.09 252.042 373.355C252.042 375.68 253.174 377.105 254.913 377.105C256.084 377.105 256.983 376.461 257.237 375.309H259.268C259.034 377.359 257.413 378.883 254.913 378.883ZM263.331 372.379V378.668H261.241V364.527H263.292V369.801H263.428C263.936 368.648 264.913 367.926 266.573 367.926C268.76 367.926 270.206 369.273 270.206 371.93V378.668H268.116V372.184C268.116 370.621 267.276 369.723 265.87 369.723C264.405 369.723 263.331 370.68 263.331 372.379ZM272.725 378.668V368.062H274.815V378.668H272.725ZM273.78 366.422C273.057 366.422 272.452 365.875 272.452 365.191C272.452 364.508 273.057 363.961 273.78 363.961C274.483 363.961 275.088 364.508 275.088 365.191C275.088 365.875 274.483 366.422 273.78 366.422ZM279.444 372.379V378.668H277.354V368.062H279.366V369.801H279.483C279.991 368.668 281.026 367.926 282.608 367.926C284.795 367.926 286.221 369.293 286.221 371.93V378.668H284.151V372.184C284.151 370.641 283.311 369.723 281.905 369.723C280.479 369.723 279.444 370.68 279.444 372.379ZM293.331 378.883C290.206 378.883 288.292 376.734 288.292 373.434C288.292 370.172 290.245 367.926 293.194 367.926C295.616 367.926 297.901 369.43 297.901 373.258V374H290.362C290.42 376.012 291.602 377.164 293.35 377.164C294.542 377.164 295.303 376.656 295.655 376.012H297.764C297.295 377.73 295.655 378.883 293.331 378.883ZM290.381 372.438H295.85C295.85 370.816 294.815 369.645 293.213 369.645C291.543 369.645 290.459 370.934 290.381 372.438ZM305.928 370.953C305.733 370.113 305.069 369.566 303.917 369.566C302.725 369.566 301.866 370.191 301.885 370.992C301.866 371.617 302.374 372.066 303.545 372.34L305.225 372.73C307.178 373.16 308.116 374.098 308.135 375.602C308.116 377.516 306.514 378.883 303.799 378.883C301.26 378.883 299.737 377.75 299.483 375.777H301.612C301.788 376.734 302.53 377.203 303.78 377.203C305.127 377.203 305.987 376.656 306.006 375.758C305.987 375.074 305.479 374.625 304.366 374.371L302.706 374.02C300.792 373.59 299.795 372.574 299.795 371.109C299.795 369.215 301.436 367.926 303.897 367.926C306.26 367.926 307.725 369.137 307.94 370.953H305.928ZM316.124 370.953C315.928 370.113 315.264 369.566 314.112 369.566C312.92 369.566 312.061 370.191 312.081 370.992C312.061 371.617 312.569 372.066 313.741 372.34L315.42 372.73C317.374 373.16 318.311 374.098 318.331 375.602C318.311 377.516 316.709 378.883 313.995 378.883C311.456 378.883 309.932 377.75 309.678 375.777H311.807C311.983 376.734 312.725 377.203 313.975 377.203C315.323 377.203 316.182 376.656 316.202 375.758C316.182 375.074 315.674 374.625 314.561 374.371L312.901 374.02C310.987 373.59 309.991 372.574 309.991 371.109C309.991 369.215 311.631 367.926 314.092 367.926C316.456 367.926 317.92 369.137 318.135 370.953H316.124Z" fill="black"/>
<path d="M370.779 378.668V364.527H372.927V376.812H379.314V378.668H370.779ZM385.837 378.883C382.83 378.883 380.876 376.695 380.876 373.414C380.876 370.113 382.83 367.926 385.837 367.926C388.826 367.926 390.779 370.113 390.779 373.414C390.779 376.695 388.826 378.883 385.837 378.883ZM385.837 377.145C387.751 377.145 388.669 375.445 388.669 373.414C388.669 371.383 387.751 369.645 385.837 369.645C383.884 369.645 382.966 371.383 382.966 373.414C382.966 375.445 383.884 377.145 385.837 377.145ZM399.568 374.254V368.062H401.638V378.668H399.607V376.832H399.49C399.001 377.965 397.908 378.805 396.326 378.805C394.275 378.805 392.83 377.438 392.83 374.801V368.062H394.919V374.547C394.919 375.992 395.798 376.91 397.068 376.91C398.22 376.91 399.568 376.07 399.568 374.254ZM408.142 378.883C405.583 378.883 403.708 376.812 403.708 373.395C403.708 369.938 405.603 367.926 408.162 367.926C410.134 367.926 410.857 369.117 411.228 369.781H411.326V364.527H413.416V378.668H411.384V377.008H411.228C410.837 377.711 410.076 378.883 408.142 378.883ZM408.611 377.105C410.388 377.105 411.384 375.582 411.384 373.355C411.384 371.148 410.408 369.703 408.611 369.703C406.755 369.703 405.837 371.266 405.837 373.355C405.837 375.484 406.794 377.105 408.611 377.105ZM418.22 372.379V378.668H416.13V368.062H418.142V369.801H418.259C418.767 368.668 419.802 367.926 421.384 367.926C423.572 367.926 424.998 369.293 424.998 371.93V378.668H422.927V372.184C422.927 370.641 422.087 369.723 420.681 369.723C419.255 369.723 418.22 370.68 418.22 372.379ZM432.107 378.883C428.982 378.883 427.068 376.734 427.068 373.434C427.068 370.172 429.021 367.926 431.97 367.926C434.392 367.926 436.677 369.43 436.677 373.258V374H429.138C429.197 376.012 430.378 377.164 432.126 377.164C433.318 377.164 434.08 376.656 434.431 376.012H436.541C436.072 377.73 434.431 378.883 432.107 378.883ZM429.158 372.438H434.626C434.626 370.816 433.591 369.645 431.99 369.645C430.32 369.645 429.236 370.934 429.158 372.438ZM444.705 370.953C444.509 370.113 443.845 369.566 442.693 369.566C441.501 369.566 440.642 370.191 440.662 370.992C440.642 371.617 441.15 372.066 442.322 372.34L444.001 372.73C445.955 373.16 446.892 374.098 446.912 375.602C446.892 377.516 445.291 378.883 442.576 378.883C440.037 378.883 438.513 377.75 438.259 375.777H440.388C440.564 376.734 441.306 377.203 442.556 377.203C443.904 377.203 444.763 376.656 444.783 375.758C444.763 375.074 444.255 374.625 443.142 374.371L441.482 374.02C439.568 373.59 438.572 372.574 438.572 371.109C438.572 369.215 440.212 367.926 442.673 367.926C445.037 367.926 446.501 369.137 446.716 370.953H444.705ZM454.9 370.953C454.705 370.113 454.041 369.566 452.888 369.566C451.697 369.566 450.837 370.191 450.857 370.992C450.837 371.617 451.345 372.066 452.517 372.34L454.197 372.73C456.15 373.16 457.087 374.098 457.107 375.602C457.087 377.516 455.486 378.883 452.771 378.883C450.232 378.883 448.708 377.75 448.455 375.777H450.583C450.759 376.734 451.501 377.203 452.751 377.203C454.099 377.203 454.958 376.656 454.978 375.758C454.958 375.074 454.451 374.625 453.337 374.371L451.677 374.02C449.763 373.59 448.767 372.574 448.767 371.109C448.767 369.215 450.408 367.926 452.869 367.926C455.232 367.926 456.697 369.137 456.912 370.953H454.9Z" fill="black"/>
</svg>
