<svg width="915" height="918" viewBox="0 0 915 918" fill="none" xmlns="http://www.w3.org/2000/svg">
<path d="M282.158 546.24H284.818V557H282.158V546.24ZM284.098 550.56H287.278V552.74H284.098V550.56ZM276.858 547.28H279.658C279.658 548.92 279.324 550.387 278.658 551.68C278.004 552.96 277.038 554.047 275.758 554.94C274.478 555.833 272.924 556.52 271.098 557L269.998 554.94C271.531 554.553 272.798 554.047 273.798 553.42C274.811 552.78 275.571 552.053 276.078 551.24C276.598 550.413 276.858 549.54 276.858 548.62V547.28ZM270.938 547.28H278.438V549.4H270.938V547.28ZM272.458 557.78H284.818V564.78H282.158V559.88H272.458V557.78ZM298.105 555.76H300.765V559.8H298.105V555.76ZM306.205 546.24H308.865V560.28H306.205V546.24ZM295.525 562.32H309.285V564.46H295.525V562.32ZM295.525 558.94H298.185V562.9H295.525V558.94ZM293.545 556.56L293.205 554.44C294.338 554.427 295.572 554.413 296.905 554.4C298.238 554.373 299.598 554.32 300.985 554.24C302.372 554.16 303.705 554.04 304.985 553.88L305.165 555.78C303.845 556.007 302.498 556.18 301.125 556.3C299.765 556.407 298.438 556.473 297.145 556.5C295.852 556.527 294.652 556.547 293.545 556.56ZM302.725 557H306.805V558.82H302.725V557ZM299.165 546.88C300.072 546.88 300.872 547.02 301.565 547.3C302.258 547.58 302.798 547.967 303.185 548.46C303.585 548.953 303.785 549.533 303.785 550.2C303.785 550.853 303.585 551.433 303.185 551.94C302.798 552.433 302.258 552.813 301.565 553.08C300.872 553.347 300.072 553.48 299.165 553.48C298.258 553.48 297.452 553.347 296.745 553.08C296.052 552.813 295.512 552.433 295.125 551.94C294.738 551.433 294.545 550.853 294.545 550.2C294.545 549.533 294.738 548.953 295.125 548.46C295.512 547.967 296.052 547.58 296.745 547.3C297.452 547.02 298.258 546.88 299.165 546.88ZM299.165 548.82C298.552 548.82 298.045 548.933 297.645 549.16C297.258 549.387 297.065 549.733 297.065 550.2C297.065 550.64 297.258 550.98 297.645 551.22C298.045 551.447 298.552 551.56 299.165 551.56C299.792 551.56 300.292 551.447 300.665 551.22C301.052 550.98 301.245 550.64 301.245 550.2C301.245 549.893 301.158 549.64 300.985 549.44C300.812 549.24 300.572 549.087 300.265 548.98C299.958 548.873 299.592 548.82 299.165 548.82ZM311.663 555.7H328.423V557.8H311.663V555.7ZM313.703 562.32H326.543V564.46H313.703V562.32ZM313.703 559.04H316.363V563H313.703V559.04ZM320.043 546.8C321.39 546.8 322.563 546.953 323.563 547.26C324.577 547.567 325.363 548.007 325.923 548.58C326.483 549.153 326.763 549.827 326.763 550.6C326.763 551.387 326.483 552.067 325.923 552.64C325.363 553.213 324.577 553.653 323.563 553.96C322.563 554.267 321.39 554.42 320.043 554.42C318.71 554.42 317.537 554.267 316.523 553.96C315.523 553.653 314.743 553.213 314.183 552.64C313.623 552.067 313.343 551.387 313.343 550.6C313.343 549.827 313.623 549.153 314.183 548.58C314.743 548.007 315.523 547.567 316.523 547.26C317.537 546.953 318.71 546.8 320.043 546.8ZM320.043 548.9C319.23 548.9 318.523 548.967 317.923 549.1C317.323 549.233 316.87 549.427 316.563 549.68C316.257 549.92 316.103 550.227 316.103 550.6C316.103 550.973 316.257 551.287 316.563 551.54C316.87 551.793 317.323 551.987 317.923 552.12C318.523 552.253 319.23 552.32 320.043 552.32C320.883 552.32 321.597 552.253 322.183 552.12C322.77 551.987 323.217 551.793 323.523 551.54C323.843 551.287 324.003 550.973 324.003 550.6C324.003 550.227 323.843 549.92 323.523 549.68C323.217 549.427 322.77 549.233 322.183 549.1C321.597 548.967 320.883 548.9 320.043 548.9ZM346.571 546.26H349.231V564.78H346.571V546.26ZM348.631 553.48H351.891V555.68H348.631V553.48ZM334.611 548.98H345.411V551.1H334.611V548.98ZM340.051 552.16C340.944 552.16 341.744 552.353 342.451 552.74C343.157 553.113 343.711 553.627 344.111 554.28C344.524 554.933 344.731 555.693 344.731 556.56C344.731 557.427 344.524 558.193 344.111 558.86C343.711 559.513 343.157 560.033 342.451 560.42C341.757 560.793 340.957 560.98 340.051 560.98C339.157 560.98 338.351 560.793 337.631 560.42C336.924 560.033 336.364 559.513 335.951 558.86C335.551 558.193 335.351 557.427 335.351 556.56C335.351 555.693 335.551 554.933 335.951 554.28C336.364 553.627 336.924 553.113 337.631 552.74C338.351 552.353 339.157 552.16 340.051 552.16ZM340.051 554.32C339.624 554.32 339.251 554.407 338.931 554.58C338.611 554.753 338.357 555.007 338.171 555.34C337.984 555.673 337.891 556.08 337.891 556.56C337.891 557.027 337.984 557.433 338.171 557.78C338.357 558.113 338.611 558.373 338.931 558.56C339.251 558.733 339.624 558.82 340.051 558.82C340.464 558.82 340.831 558.733 341.151 558.56C341.471 558.373 341.724 558.113 341.911 557.78C342.097 557.433 342.191 557.027 342.191 556.56C342.191 556.08 342.097 555.673 341.911 555.34C341.724 555.007 341.471 554.753 341.151 554.58C340.831 554.407 340.464 554.32 340.051 554.32ZM338.691 546.56H341.371V549.8H338.691V546.56ZM366.929 553.24H370.189V555.44H366.929V553.24ZM364.929 546.22H367.609V564.74H364.929V546.22ZM353.669 548H356.309V559.52H353.669V548ZM353.669 558.02H355.249C356.569 558.02 357.942 557.967 359.369 557.86C360.796 557.753 362.256 557.553 363.749 557.26L364.029 559.42C362.482 559.74 360.976 559.96 359.509 560.08C358.042 560.187 356.622 560.24 355.249 560.24H353.669V558.02ZM377.468 547.48C378.428 547.48 379.294 547.673 380.068 548.06C380.841 548.447 381.448 548.987 381.888 549.68C382.328 550.36 382.548 551.147 382.548 552.04C382.548 552.92 382.328 553.707 381.888 554.4C381.448 555.093 380.841 555.633 380.068 556.02C379.294 556.407 378.428 556.6 377.468 556.6C376.494 556.6 375.621 556.407 374.848 556.02C374.074 555.633 373.461 555.093 373.008 554.4C372.568 553.707 372.348 552.92 372.348 552.04C372.348 551.147 372.568 550.36 373.008 549.68C373.461 548.987 374.074 548.447 374.848 548.06C375.621 547.673 376.494 547.48 377.468 547.48ZM377.468 549.76C376.988 549.76 376.554 549.853 376.168 550.04C375.794 550.213 375.494 550.473 375.268 550.82C375.054 551.153 374.948 551.56 374.948 552.04C374.948 552.52 375.054 552.933 375.268 553.28C375.494 553.627 375.794 553.893 376.168 554.08C376.554 554.253 376.988 554.34 377.468 554.34C377.934 554.34 378.354 554.253 378.728 554.08C379.101 553.893 379.394 553.627 379.608 553.28C379.834 552.933 379.948 552.52 379.948 552.04C379.948 551.56 379.834 551.153 379.608 550.82C379.394 550.473 379.101 550.213 378.728 550.04C378.354 549.853 377.934 549.76 377.468 549.76ZM384.288 546.22H386.948V564.8H384.288V546.22ZM371.888 561.06L371.588 558.9C372.668 558.9 373.861 558.893 375.168 558.88C376.488 558.853 377.841 558.8 379.228 558.72C380.628 558.627 381.981 558.487 383.288 558.3L383.468 560.22C382.134 560.487 380.781 560.68 379.408 560.8C378.034 560.907 376.708 560.98 375.428 561.02C374.148 561.047 372.968 561.06 371.888 561.06ZM402.895 546.6C404.268 546.6 405.455 546.747 406.455 547.04C407.455 547.32 408.228 547.733 408.775 548.28C409.335 548.813 409.615 549.453 409.615 550.2C409.615 550.947 409.335 551.593 408.775 552.14C408.228 552.673 407.455 553.087 406.455 553.38C405.455 553.673 404.268 553.82 402.895 553.82C401.548 553.82 400.368 553.673 399.355 553.38C398.342 553.087 397.562 552.673 397.015 552.14C396.468 551.593 396.195 550.947 396.195 550.2C396.195 549.453 396.468 548.813 397.015 548.28C397.562 547.733 398.342 547.32 399.355 547.04C400.368 546.747 401.548 546.6 402.895 546.6ZM402.895 548.64C402.068 548.64 401.355 548.7 400.755 548.82C400.155 548.927 399.702 549.093 399.395 549.32C399.102 549.547 398.955 549.84 398.955 550.2C398.955 550.547 399.102 550.84 399.395 551.08C399.702 551.307 400.155 551.48 400.755 551.6C401.355 551.707 402.068 551.76 402.895 551.76C403.748 551.76 404.468 551.707 405.055 551.6C405.642 551.48 406.088 551.307 406.395 551.08C406.702 550.84 406.855 550.547 406.855 550.2C406.855 549.84 406.702 549.547 406.395 549.32C406.088 549.093 405.642 548.927 405.055 548.82C404.468 548.7 403.748 548.64 402.895 548.64ZM396.475 558.26H409.275V564.58H396.475V558.26ZM406.675 560.36H399.075V562.48H406.675V560.36ZM394.515 554.88H411.275V556.96H394.515V554.88ZM418.073 547.26C419.033 547.26 419.893 547.46 420.653 547.86C421.413 548.247 422.013 548.78 422.453 549.46C422.893 550.127 423.113 550.9 423.113 551.78C423.113 552.673 422.893 553.46 422.453 554.14C422.013 554.82 421.413 555.353 420.653 555.74C419.893 556.127 419.033 556.32 418.073 556.32C417.127 556.32 416.273 556.127 415.513 555.74C414.753 555.353 414.153 554.82 413.713 554.14C413.273 553.46 413.053 552.673 413.053 551.78C413.053 550.9 413.273 550.127 413.713 549.46C414.153 548.78 414.753 548.247 415.513 547.86C416.273 547.46 417.127 547.26 418.073 547.26ZM418.073 549.5C417.62 549.5 417.207 549.593 416.833 549.78C416.46 549.953 416.167 550.213 415.953 550.56C415.753 550.893 415.653 551.3 415.653 551.78C415.653 552.273 415.753 552.693 415.953 553.04C416.167 553.373 416.46 553.633 416.833 553.82C417.207 553.993 417.62 554.08 418.073 554.08C418.553 554.08 418.973 553.993 419.333 553.82C419.693 553.633 419.98 553.373 420.193 553.04C420.407 552.693 420.513 552.273 420.513 551.78C420.513 551.3 420.407 550.893 420.193 550.56C419.98 550.213 419.693 549.953 419.333 549.78C418.973 549.593 418.553 549.5 418.073 549.5ZM424.833 546.26H427.493V557.08H424.833V546.26ZM426.773 550.56H429.953V552.76H426.773V550.56ZM415.133 557.88H427.493V564.78H424.833V559.98H415.133V557.88ZM438.732 553.06H441.772V555.2H438.732V553.06ZM444.692 546.24H447.232V564.76H444.692V546.24ZM440.932 546.54H443.412V563.94H440.932V546.54ZM435.492 547.54C436.305 547.54 437.012 547.813 437.612 548.36C438.225 548.893 438.692 549.667 439.012 550.68C439.345 551.68 439.512 552.88 439.512 554.28C439.512 555.667 439.345 556.867 439.012 557.88C438.692 558.893 438.225 559.673 437.612 560.22C437.012 560.753 436.298 561.02 435.472 561.02C434.672 561.02 433.965 560.753 433.352 560.22C432.752 559.673 432.285 558.893 431.952 557.88C431.632 556.867 431.472 555.667 431.472 554.28C431.472 552.88 431.632 551.68 431.952 550.68C432.285 549.667 432.752 548.893 433.352 548.36C433.965 547.813 434.678 547.54 435.492 547.54ZM435.492 550.06C435.158 550.06 434.872 550.213 434.632 550.52C434.392 550.827 434.205 551.293 434.072 551.92C433.952 552.533 433.892 553.32 433.892 554.28C433.892 555.213 433.952 555.993 434.072 556.62C434.205 557.247 434.392 557.72 434.632 558.04C434.872 558.347 435.158 558.5 435.492 558.5C435.825 558.5 436.112 558.347 436.352 558.04C436.605 557.72 436.792 557.247 436.912 556.62C437.032 555.993 437.092 555.213 437.092 554.28C437.092 553.32 437.032 552.533 436.912 551.92C436.792 551.293 436.605 550.827 436.352 550.52C436.112 550.213 435.825 550.06 435.492 550.06ZM467.719 546.24H470.259V564.76H467.719V546.24ZM465.259 553.38H468.339V555.52H465.259V553.38ZM463.579 546.56H466.039V563.9H463.579V546.56ZM454.879 558.4H456.159C456.932 558.4 457.666 558.393 458.359 558.38C459.052 558.353 459.739 558.307 460.419 558.24C461.112 558.16 461.819 558.06 462.539 557.94L462.759 560.1C462.012 560.233 461.286 560.34 460.579 560.42C459.872 560.5 459.159 560.553 458.439 560.58C457.719 560.593 456.959 560.6 456.159 560.6H454.879V558.4ZM454.879 548.4H461.699V550.54H457.499V559.46H454.879V548.4ZM484.658 546.26H487.318V560.1H484.658V546.26ZM486.578 551.9H489.778V554.1H486.578V551.9ZM472.758 548.2H483.638V550.28H472.758V548.2ZM478.198 550.94C479.091 550.94 479.878 551.093 480.558 551.4C481.251 551.693 481.791 552.113 482.178 552.66C482.564 553.193 482.758 553.807 482.758 554.5C482.758 555.207 482.564 555.833 482.178 556.38C481.791 556.913 481.251 557.333 480.558 557.64C479.878 557.933 479.091 558.08 478.198 558.08C477.318 558.08 476.531 557.933 475.838 557.64C475.144 557.333 474.604 556.913 474.218 556.38C473.831 555.833 473.638 555.207 473.638 554.5C473.638 553.807 473.831 553.193 474.218 552.66C474.604 552.113 475.144 551.693 475.838 551.4C476.531 551.093 477.318 550.94 478.198 550.94ZM478.198 552.96C477.611 552.96 477.131 553.093 476.758 553.36C476.384 553.627 476.198 554.013 476.198 554.52C476.198 555.013 476.384 555.393 476.758 555.66C477.131 555.927 477.611 556.06 478.198 556.06C478.798 556.06 479.278 555.927 479.638 555.66C480.011 555.393 480.198 555.013 480.198 554.52C480.198 554.013 480.011 553.627 479.638 553.36C479.278 553.093 478.798 552.96 478.198 552.96ZM476.878 546.24H479.518V549.2H476.878V546.24ZM475.378 562.32H487.978V564.46H475.378V562.32ZM475.378 559.06H478.058V563.24H475.378V559.06ZM505.825 550.72H509.345V552.88H505.825V550.72ZM508.605 546.26H511.285V557.26H508.605V546.26ZM505.005 557.66C506.312 557.66 507.438 557.8 508.385 558.08C509.332 558.36 510.058 558.767 510.565 559.3C511.085 559.833 511.345 560.473 511.345 561.22C511.345 562.367 510.778 563.247 509.645 563.86C508.512 564.487 506.965 564.8 505.005 564.8C503.045 564.8 501.498 564.487 500.365 563.86C499.232 563.247 498.665 562.367 498.665 561.22C498.665 560.473 498.918 559.833 499.425 559.3C499.945 558.767 500.678 558.36 501.625 558.08C502.572 557.8 503.698 557.66 505.005 557.66ZM505.005 559.68C504.205 559.68 503.532 559.74 502.985 559.86C502.438 559.967 502.018 560.133 501.725 560.36C501.445 560.587 501.305 560.873 501.305 561.22C501.305 561.567 501.445 561.86 501.725 562.1C502.018 562.327 502.438 562.5 502.985 562.62C503.532 562.727 504.205 562.78 505.005 562.78C505.805 562.78 506.478 562.727 507.025 562.62C507.572 562.5 507.985 562.327 508.265 562.1C508.545 561.86 508.685 561.567 508.685 561.22C508.685 560.873 508.545 560.587 508.265 560.36C507.985 560.133 507.572 559.967 507.025 559.86C506.478 559.74 505.805 559.68 505.005 559.68ZM500.065 548.1H502.225V549.28C502.225 550.453 502.038 551.573 501.665 552.64C501.292 553.707 500.718 554.647 499.945 555.46C499.185 556.26 498.212 556.86 497.025 557.26L495.685 555.16C496.445 554.907 497.098 554.567 497.645 554.14C498.205 553.713 498.658 553.24 499.005 552.72C499.365 552.187 499.632 551.627 499.805 551.04C499.978 550.453 500.065 549.867 500.065 549.28V548.1ZM500.625 548.1H502.745V549.26C502.745 549.993 502.892 550.713 503.185 551.42C503.478 552.127 503.932 552.767 504.545 553.34C505.172 553.913 505.972 554.367 506.945 554.7L505.645 556.78C504.498 556.393 503.552 555.827 502.805 555.08C502.072 554.32 501.525 553.44 501.165 552.44C500.805 551.427 500.625 550.367 500.625 549.26V548.1ZM496.405 547.38H506.365V549.48H496.405V547.38ZM523.523 552.04H528.403V554.18H523.523V552.04ZM518.483 547.66H520.623V550.36C520.623 551.52 520.523 552.647 520.323 553.74C520.123 554.833 519.817 555.853 519.403 556.8C518.99 557.747 518.463 558.58 517.823 559.3C517.197 560.02 516.45 560.6 515.583 561.04L513.923 558.92C514.71 558.547 515.383 558.06 515.943 557.46C516.517 556.86 516.99 556.18 517.363 555.42C517.75 554.647 518.03 553.833 518.203 552.98C518.39 552.113 518.483 551.24 518.483 550.36V547.66ZM519.023 547.66H521.143V550.36C521.143 551.227 521.23 552.087 521.403 552.94C521.577 553.78 521.837 554.567 522.183 555.3C522.543 556.033 523.003 556.687 523.563 557.26C524.123 557.82 524.79 558.273 525.563 558.62L523.963 560.74C523.097 560.313 522.35 559.753 521.723 559.06C521.097 558.353 520.583 557.547 520.183 556.64C519.797 555.733 519.503 554.747 519.303 553.68C519.117 552.613 519.023 551.507 519.023 550.36V547.66ZM527.063 546.22H529.723V564.8H527.063V546.22ZM538.542 547.48C539.502 547.48 540.368 547.673 541.142 548.06C541.915 548.447 542.522 548.987 542.962 549.68C543.402 550.36 543.622 551.147 543.622 552.04C543.622 552.92 543.402 553.707 542.962 554.4C542.522 555.093 541.915 555.633 541.142 556.02C540.368 556.407 539.502 556.6 538.542 556.6C537.568 556.6 536.695 556.407 535.922 556.02C535.148 555.633 534.535 555.093 534.082 554.4C533.642 553.707 533.422 552.92 533.422 552.04C533.422 551.147 533.642 550.36 534.082 549.68C534.535 548.987 535.148 548.447 535.922 548.06C536.695 547.673 537.568 547.48 538.542 547.48ZM538.542 549.76C538.062 549.76 537.628 549.853 537.242 550.04C536.868 550.213 536.568 550.473 536.342 550.82C536.128 551.153 536.022 551.56 536.022 552.04C536.022 552.52 536.128 552.933 536.342 553.28C536.568 553.627 536.868 553.893 537.242 554.08C537.628 554.253 538.062 554.34 538.542 554.34C539.008 554.34 539.428 554.253 539.802 554.08C540.175 553.893 540.468 553.627 540.682 553.28C540.908 552.933 541.022 552.52 541.022 552.04C541.022 551.56 540.908 551.153 540.682 550.82C540.468 550.473 540.175 550.213 539.802 550.04C539.428 549.853 539.008 549.76 538.542 549.76ZM545.362 546.22H548.022V564.8H545.362V546.22ZM532.962 561.06L532.662 558.9C533.742 558.9 534.935 558.893 536.242 558.88C537.562 558.853 538.915 558.8 540.302 558.72C541.702 558.627 543.055 558.487 544.362 558.3L544.542 560.22C543.208 560.487 541.855 560.68 540.482 560.8C539.108 560.907 537.782 560.98 536.502 561.02C535.222 561.047 534.042 561.06 532.962 561.06ZM557.489 547.86H569.169V550H557.489V547.86ZM555.609 560.42H572.369V562.6H555.609V560.42ZM568.049 547.86H570.669V550.02C570.669 550.913 570.656 551.82 570.629 552.74C570.602 553.647 570.529 554.633 570.409 555.7C570.289 556.753 570.089 557.953 569.809 559.3L567.169 559.06C567.462 557.82 567.669 556.68 567.789 555.64C567.909 554.6 567.982 553.62 568.009 552.7C568.036 551.78 568.049 550.887 568.049 550.02V547.86ZM568.589 552.94V554.9L557.289 555.46L556.949 553.32L568.589 552.94ZM586.768 546.24H589.428V564.76H586.768V546.24ZM581.308 548.16H583.928C583.928 549.573 583.788 550.927 583.508 552.22C583.241 553.5 582.788 554.707 582.148 555.84C581.521 556.973 580.654 558.027 579.548 559C578.454 559.96 577.088 560.84 575.448 561.64L574.048 559.54C575.834 558.673 577.254 557.72 578.308 556.68C579.374 555.627 580.141 554.44 580.608 553.12C581.074 551.787 581.308 550.293 581.308 548.64V548.16ZM575.048 548.16H582.548V550.28H575.048V548.16ZM592.406 554.56H609.166V556.48H592.406V554.56ZM594.286 557.42H607.186V561.82H596.946V563.4H594.306V560.14H604.566V559.22H594.286V557.42ZM594.306 562.82H607.706V564.62H594.306V562.82ZM594.446 546.56H607.126V550.94H597.106V552.44H594.486V549.26H604.506V548.36H594.446V546.56ZM594.486 551.9H607.466V553.7H594.486V551.9ZM621.393 547.48C622.353 547.48 623.22 547.673 623.993 548.06C624.767 548.447 625.373 548.987 625.813 549.68C626.253 550.36 626.473 551.147 626.473 552.04C626.473 552.92 626.253 553.707 625.813 554.4C625.373 555.093 624.767 555.633 623.993 556.02C623.22 556.407 622.353 556.6 621.393 556.6C620.42 556.6 619.547 556.407 618.773 556.02C618 555.633 617.387 555.093 616.933 554.4C616.493 553.707 616.273 552.92 616.273 552.04C616.273 551.147 616.493 550.36 616.933 549.68C617.387 548.987 618 548.447 618.773 548.06C619.547 547.673 620.42 547.48 621.393 547.48ZM621.393 549.76C620.913 549.76 620.48 549.853 620.093 550.04C619.72 550.213 619.42 550.473 619.193 550.82C618.98 551.153 618.873 551.56 618.873 552.04C618.873 552.52 618.98 552.933 619.193 553.28C619.42 553.627 619.72 553.893 620.093 554.08C620.48 554.253 620.913 554.34 621.393 554.34C621.86 554.34 622.28 554.253 622.653 554.08C623.027 553.893 623.32 553.627 623.533 553.28C623.76 552.933 623.873 552.52 623.873 552.04C623.873 551.56 623.76 551.153 623.533 550.82C623.32 550.473 623.027 550.213 622.653 550.04C622.28 549.853 621.86 549.76 621.393 549.76ZM628.213 546.22H630.873V564.8H628.213V546.22ZM615.813 561.06L615.513 558.9C616.593 558.9 617.787 558.893 619.093 558.88C620.413 558.853 621.767 558.8 623.153 558.72C624.553 558.627 625.907 558.487 627.213 558.3L627.393 560.22C626.06 560.487 624.707 560.68 623.333 560.8C621.96 560.907 620.633 560.98 619.353 561.02C618.073 561.047 616.893 561.06 615.813 561.06ZM634.732 547.9H643.632V560.36H634.732V547.9ZM641.032 550H637.352V558.26H641.032V550ZM646.532 546.22H649.192V564.8H646.532V546.22ZM664.13 546.26H666.79V557.1H664.13V546.26ZM665.75 550.7H669.25V552.88H665.75V550.7ZM654.75 557.82H657.39V559.2H664.17V557.82H666.79V564.58H654.75V557.82ZM657.39 561.2V562.5H664.17V561.2H657.39ZM652.23 547.86H663.11V549.96H652.23V547.86ZM657.67 550.44C658.577 550.44 659.37 550.58 660.05 550.86C660.73 551.127 661.263 551.507 661.65 552C662.037 552.493 662.23 553.067 662.23 553.72C662.23 554.373 662.037 554.947 661.65 555.44C661.263 555.933 660.73 556.32 660.05 556.6C659.37 556.867 658.577 557 657.67 557C656.777 557 655.983 556.867 655.29 556.6C654.61 556.32 654.077 555.933 653.69 555.44C653.303 554.947 653.11 554.373 653.11 553.72C653.11 553.067 653.303 552.493 653.69 552C654.077 551.507 654.61 551.127 655.29 550.86C655.983 550.58 656.777 550.44 657.67 550.44ZM657.67 552.38C657.083 552.38 656.603 552.5 656.23 552.74C655.857 552.967 655.67 553.293 655.67 553.72C655.67 554.16 655.857 554.5 656.23 554.74C656.603 554.967 657.083 555.08 657.67 555.08C658.27 555.08 658.75 554.967 659.11 554.74C659.483 554.5 659.67 554.16 659.67 553.72C659.67 553.293 659.483 552.967 659.11 552.74C658.75 552.5 658.27 552.38 657.67 552.38ZM656.35 546.1H658.99V549.02H656.35V546.1ZM683.449 546.24H686.089V564.76H683.449V546.24ZM671.589 548H674.249V559.52H671.589V548ZM671.589 557.94H673.229C674.589 557.94 676.009 557.887 677.489 557.78C678.969 557.66 680.475 557.447 682.009 557.14L682.289 559.36C680.715 559.693 679.162 559.92 677.629 560.04C676.109 560.147 674.642 560.2 673.229 560.2H671.589V557.94ZM700.847 546.22H703.527V564.8H700.847V546.22ZM702.947 553.08H706.207V555.28H702.947V553.08ZM689.727 558.16H691.287C692.34 558.16 693.327 558.147 694.247 558.12C695.167 558.08 696.06 558.02 696.927 557.94C697.794 557.847 698.68 557.72 699.587 557.56L699.847 559.76C698.914 559.92 697.994 560.047 697.087 560.14C696.194 560.233 695.274 560.293 694.327 560.32C693.38 560.347 692.367 560.36 691.287 560.36H689.727V558.16ZM689.727 547.94H698.367V550.08H692.387V559.2H689.727V547.94ZM709.581 563.185C709.113 563.185 708.71 563.019 708.374 562.688C708.042 562.351 707.877 561.949 707.877 561.48C707.877 561.016 708.042 560.618 708.374 560.287C708.71 559.955 709.113 559.79 709.581 559.79C710.036 559.79 710.434 559.955 710.775 560.287C711.115 560.618 711.286 561.016 711.286 561.48C711.286 561.793 711.205 562.079 711.044 562.339C710.888 562.595 710.682 562.801 710.426 562.957C710.171 563.109 709.889 563.185 709.581 563.185Z" fill="black"/>
<path d="M286.264 485.455H290.057L294.062 495.227H294.233L298.239 485.455H302.031V500H299.048V490.533H298.928L295.163 499.929H293.132L289.368 490.497H289.247V500H286.264V485.455ZM304.508 500V489.091H307.534V500H304.508ZM306.028 487.685C305.578 487.685 305.192 487.536 304.87 487.237C304.553 486.934 304.395 486.572 304.395 486.151C304.395 485.734 304.553 485.376 304.87 485.078C305.192 484.775 305.578 484.624 306.028 484.624C306.478 484.624 306.861 484.775 307.179 485.078C307.501 485.376 307.662 485.734 307.662 486.151C307.662 486.572 307.501 486.934 307.179 487.237C306.861 487.536 306.478 487.685 306.028 487.685ZM312.983 493.693V500H309.957V489.091H312.841V491.016H312.969C313.21 490.381 313.615 489.879 314.183 489.51C314.751 489.136 315.44 488.949 316.25 488.949C317.008 488.949 317.668 489.115 318.232 489.446C318.795 489.777 319.233 490.251 319.545 490.866C319.858 491.477 320.014 492.206 320.014 493.054V500H316.989V493.594C316.993 492.926 316.823 492.405 316.477 492.031C316.132 491.652 315.656 491.463 315.05 491.463C314.643 491.463 314.283 491.551 313.97 491.726C313.662 491.901 313.421 492.157 313.246 492.493C313.075 492.824 312.988 493.224 312.983 493.693ZM332.702 500.32C331.481 500.315 330.43 500.014 329.549 499.418C328.673 498.821 327.998 497.957 327.525 496.825C327.056 495.694 326.824 494.332 326.829 492.741C326.829 491.155 327.063 489.804 327.532 488.686C328.005 487.569 328.68 486.719 329.556 486.136C330.437 485.549 331.486 485.256 332.702 485.256C333.919 485.256 334.966 485.549 335.842 486.136C336.722 486.723 337.399 487.576 337.873 488.693C338.346 489.806 338.581 491.155 338.576 492.741C338.576 494.337 338.339 495.701 337.866 496.832C337.397 497.964 336.725 498.828 335.849 499.425C334.973 500.021 333.924 500.32 332.702 500.32ZM332.702 497.77C333.536 497.77 334.201 497.351 334.698 496.513C335.195 495.675 335.442 494.418 335.437 492.741C335.437 491.638 335.323 490.72 335.096 489.986C334.873 489.252 334.556 488.7 334.144 488.331C333.737 487.962 333.256 487.777 332.702 487.777C331.874 487.777 331.211 488.191 330.714 489.02C330.217 489.848 329.966 491.089 329.961 492.741C329.961 493.859 330.072 494.792 330.295 495.54C330.522 496.283 330.842 496.842 331.254 497.216C331.665 497.585 332.148 497.77 332.702 497.77Z" fill="black"/>
<path d="M601.264 485.455H605.057L609.062 495.227H609.233L613.239 485.455H617.031V500H614.048V490.533H613.928L610.163 499.929H608.132L604.368 490.497H604.247V500H601.264V485.455ZM622.619 500.206C621.923 500.206 621.303 500.085 620.758 499.844C620.214 499.598 619.783 499.235 619.466 498.757C619.153 498.274 618.997 497.673 618.997 496.953C618.997 496.347 619.108 495.838 619.331 495.426C619.553 495.014 619.856 494.683 620.24 494.432C620.623 494.181 621.059 493.991 621.547 493.864C622.039 493.736 622.555 493.646 623.095 493.594C623.729 493.527 624.241 493.466 624.629 493.409C625.017 493.348 625.299 493.258 625.474 493.139C625.649 493.021 625.737 492.846 625.737 492.614V492.571C625.737 492.121 625.595 491.773 625.311 491.527C625.031 491.281 624.634 491.158 624.118 491.158C623.573 491.158 623.14 491.278 622.818 491.52C622.496 491.757 622.283 492.055 622.179 492.415L619.38 492.188C619.522 491.525 619.802 490.952 620.218 490.469C620.635 489.981 621.172 489.607 621.831 489.347C622.493 489.081 623.261 488.949 624.132 488.949C624.738 488.949 625.318 489.02 625.872 489.162C626.431 489.304 626.925 489.524 627.356 489.822C627.792 490.121 628.135 490.504 628.386 490.973C628.637 491.437 628.762 491.993 628.762 492.642V500H625.893V498.487H625.808C625.633 498.828 625.398 499.129 625.105 499.389C624.811 499.645 624.458 499.846 624.047 499.993C623.635 500.135 623.159 500.206 622.619 500.206ZM623.485 498.118C623.931 498.118 624.324 498.03 624.664 497.855C625.005 497.675 625.273 497.434 625.467 497.131C625.661 496.828 625.758 496.484 625.758 496.101V494.943C625.663 495.005 625.533 495.062 625.368 495.114C625.207 495.161 625.024 495.206 624.821 495.249C624.617 495.286 624.413 495.322 624.21 495.355C624.006 495.384 623.822 495.41 623.656 495.433C623.301 495.485 622.991 495.568 622.725 495.682C622.46 495.795 622.254 495.949 622.108 496.143C621.961 496.333 621.887 496.57 621.887 496.854C621.887 497.266 622.037 497.58 622.335 497.798C622.638 498.011 623.021 498.118 623.485 498.118ZM633.638 489.091L635.641 492.905L637.694 489.091H640.797L637.637 494.545L640.882 500H637.793L635.641 496.229L633.525 500H630.4L633.638 494.545L630.513 489.091H633.638ZM653.523 485.455V500H650.447V488.374H650.362L647.031 490.462V487.734L650.632 485.455H653.523ZM662.683 500.32C661.461 500.315 660.41 500.014 659.529 499.418C658.654 498.821 657.979 497.957 657.505 496.825C657.037 495.694 656.805 494.332 656.809 492.741C656.809 491.155 657.044 489.804 657.512 488.686C657.986 487.569 658.661 486.719 659.537 486.136C660.417 485.549 661.466 485.256 662.683 485.256C663.9 485.256 664.946 485.549 665.822 486.136C666.703 486.723 667.38 487.576 667.853 488.693C668.327 489.806 668.561 491.155 668.556 492.741C668.556 494.337 668.32 495.701 667.846 496.832C667.377 497.964 666.705 498.828 665.829 499.425C664.953 500.021 663.904 500.32 662.683 500.32ZM662.683 497.77C663.516 497.77 664.181 497.351 664.679 496.513C665.176 495.675 665.422 494.418 665.417 492.741C665.417 491.638 665.304 490.72 665.076 489.986C664.854 489.252 664.537 488.7 664.125 488.331C663.717 487.962 663.237 487.777 662.683 487.777C661.854 487.777 661.191 488.191 660.694 489.02C660.197 489.848 659.946 491.089 659.941 492.741C659.941 493.859 660.053 494.792 660.275 495.54C660.502 496.283 660.822 496.842 661.234 497.216C661.646 497.585 662.129 497.77 662.683 497.77ZM676.452 500.32C675.231 500.315 674.18 500.014 673.299 499.418C672.423 498.821 671.748 497.957 671.275 496.825C670.806 495.694 670.574 494.332 670.579 492.741C670.579 491.155 670.813 489.804 671.282 488.686C671.755 487.569 672.43 486.719 673.306 486.136C674.187 485.549 675.236 485.256 676.452 485.256C677.669 485.256 678.716 485.549 679.592 486.136C680.472 486.723 681.149 487.576 681.623 488.693C682.096 489.806 682.331 491.155 682.326 492.741C682.326 494.337 682.089 495.701 681.616 496.832C681.147 497.964 680.475 498.828 679.599 499.425C678.723 500.021 677.674 500.32 676.452 500.32ZM676.452 497.77C677.286 497.77 677.951 497.351 678.448 496.513C678.945 495.675 679.192 494.418 679.187 492.741C679.187 491.638 679.073 490.72 678.846 489.986C678.623 489.252 678.306 488.7 677.894 488.331C677.487 487.962 677.006 487.777 676.452 487.777C675.624 487.777 674.961 488.191 674.464 489.02C673.967 489.848 673.716 491.089 673.711 492.741C673.711 493.859 673.822 494.792 674.045 495.54C674.272 496.283 674.592 496.842 675.004 497.216C675.415 497.585 675.898 497.77 676.452 497.77Z" fill="black"/>
<circle cx="345" cy="438" r="5" fill="black"/>
<circle cx="425" cy="418" r="25" fill="black"/>
<circle cx="550" cy="393" r="50" fill="black"/>
</svg>
